<svg width="442" height="330" viewBox="0 0 442 330" fill="none" xmlns="http://www.w3.org/2000/svg">
<path d="M220.766 329.295C315.327 329.295 391.984 324.82 391.984 319.299C391.984 313.778 315.327 309.303 220.766 309.303C126.206 309.303 49.5488 313.778 49.5488 319.299C49.5488 324.82 126.206 329.295 220.766 329.295Z" fill="#F5F5F5"/>
<path d="M308.411 96.0512L299.651 92.519C299.651 92.519 288.091 113.598 284.78 114.666C280.276 116.114 270.951 120.141 265.423 120.848C264.672 121.731 263.445 124.477 263.56 125.475C270.986 127.956 287.305 124.663 290.802 122.066C298.759 116.176 308.411 96.0512 308.411 96.0512Z" fill="#E58A7B"/>
<path d="M311.104 91.2562C312.738 97.2876 303.889 109.421 303.889 109.421L292.295 102.922C292.295 102.922 294.467 97.9322 297.116 92.8546C301.364 84.6509 309.241 84.3772 311.104 91.2562Z" fill="#1A4372"/>
<path opacity="0.2" d="M311.104 91.2562C312.738 97.2876 303.889 109.421 303.889 109.421L292.295 102.922C292.295 102.922 294.467 97.9322 297.116 92.8546C301.364 84.6509 309.241 84.3772 311.104 91.2562Z" fill="black"/>
<path opacity="0.2" d="M296.896 105.518L301.461 108.079L302.265 94.0644C299.607 96.1043 297.734 102.25 296.896 105.518Z" fill="black"/>
<path d="M303.474 86.7173C303.474 86.7173 294.449 106.798 299.712 144.187H335.274C335.839 138.73 333.967 112.097 340.74 86.3817C336.839 85.6193 332.892 85.1149 328.924 84.8717C323.892 84.5801 318.847 84.5801 313.815 84.8717C310.327 85.2259 306.87 85.8428 303.474 86.7173Z" fill="#1A4372"/>
<path opacity="0.2" d="M303.474 86.7173C303.474 86.7173 294.449 106.798 299.712 144.187H335.274C335.839 138.73 333.967 112.097 340.74 86.3817C336.839 85.6193 332.892 85.1149 328.924 84.8717C323.892 84.5801 318.847 84.5801 313.815 84.8717C310.327 85.2259 306.87 85.8428 303.474 86.7173Z" fill="black"/>
<g style="mix-blend-mode:multiply">
<path d="M295.226 320.094C295.173 321.048 308.658 321.816 325.339 321.816C342.02 321.816 355.602 321.048 355.655 320.094C355.708 319.14 342.232 318.381 325.542 318.381C308.852 318.381 295.288 319.149 295.226 320.094Z" fill="#E8ECF1"/>
</g>
<path d="M318.964 295.035L312.657 297.476L318.09 311.512L324.397 309.07L318.964 295.035Z" fill="#E58A7B"/>
<path d="M347.089 313.303H340.439L338.002 297.911H344.652L347.089 313.303Z" fill="#E58A7B"/>
<path d="M339.98 312.535H347.451C347.581 312.535 347.706 312.582 347.804 312.666C347.903 312.75 347.969 312.866 347.99 312.994L348.952 318.902C348.972 319.05 348.961 319.201 348.917 319.344C348.874 319.487 348.801 319.619 348.702 319.732C348.603 319.844 348.481 319.934 348.344 319.995C348.208 320.056 348.06 320.086 347.91 320.085C345.305 320.041 344.051 319.882 340.766 319.882C338.744 319.882 334.585 320.094 331.777 320.094C328.968 320.094 328.783 317.339 329.94 317.083C335.132 315.961 337.146 314.433 338.876 312.95C339.182 312.682 339.574 312.534 339.98 312.535Z" fill="#263238"/>
<path d="M317.904 310.256L324.968 308.19C325.094 308.155 325.229 308.163 325.349 308.215C325.47 308.266 325.569 308.357 325.63 308.473L328.28 313.771C328.341 313.906 328.373 314.052 328.372 314.2C328.371 314.347 328.338 314.493 328.275 314.627C328.212 314.761 328.12 314.879 328.007 314.974C327.893 315.068 327.76 315.137 327.617 315.175C325.048 315.882 323.326 316.314 320.111 317.25C317.895 317.895 315.634 318.946 313.444 319.643C311.925 320.129 308.358 320.147 306.512 320.147C303.783 320.147 303.174 317.268 304.349 317.136C307.307 316.809 307.704 316.959 309.338 316.138C312.011 314.969 314.434 313.296 316.473 311.21C316.858 310.772 317.351 310.443 317.904 310.256Z" fill="#263238"/>
<path d="M266.536 120.812L259.224 117.748L256.213 125.855C259.21 126.311 262.258 126.311 265.255 125.855L266.536 120.812Z" fill="#E58A7B"/>
<path d="M253.784 117.536L253.59 122.923L256.213 125.837L259.224 117.731L253.784 117.536Z" fill="#E58A7B"/>
<path d="M319.829 296.227L313.502 298.669L316.304 305.927L322.631 303.484L319.829 296.227Z" fill="#CF6F64"/>
<path d="M344.652 297.911H338.002L339.265 305.85H345.914L344.652 297.911Z" fill="#CF6F64"/>
<path opacity="0.2" d="M298.582 134.076C298.715 135.674 298.865 137.308 299.059 138.986L325.498 130.403C329.627 129.179 333.215 126.584 335.671 123.047C335.777 120.689 335.909 118.207 336.112 115.62C336.201 114.366 336.307 113.077 336.422 111.77C336.536 110.463 336.695 109.015 336.863 107.619L298.582 134.076Z" fill="black"/>
<path d="M307.219 105.112L306.335 105.006C306.856 100.59 310.15 97.111 313.621 97.1993V98.0823C310.583 98.0205 307.687 101.155 307.219 105.112Z" fill="white"/>
<path d="M311.925 113.262H311.775V112.379C314.813 112.494 317.665 109.324 318.133 105.376L319.016 105.482C318.548 109.801 315.36 113.262 311.925 113.262Z" fill="white"/>
<path d="M328.43 67.855C327.185 72.7207 325.719 81.6308 328.924 84.8717C328.924 84.8717 326.681 89.808 317.648 89.808C309.391 89.808 313.815 84.8717 313.815 84.8717C319.308 83.5824 319.405 79.5733 318.681 75.7761L328.43 67.855Z" fill="#E58A7B"/>
<path d="M324.456 71.087L318.69 75.7761C318.868 76.6487 318.972 77.535 318.999 78.4253C320.685 80.1031 324.067 75.8556 324.412 73.6833C324.587 72.828 324.602 71.9477 324.456 71.087Z" fill="#CF6F64"/>
<path d="M308.773 67.7932C309.174 68.4886 309.714 69.0938 310.36 69.5709C311.006 70.048 311.743 70.3868 312.526 70.566C314.645 71.034 315.705 69.0824 315.122 67.122C314.601 65.3559 312.861 62.9805 310.707 63.3867C310.245 63.4817 309.813 63.686 309.447 63.9824C309.08 64.2788 308.79 64.6586 308.601 65.0901C308.412 65.5216 308.328 65.9922 308.358 66.4625C308.388 66.9328 308.53 67.3891 308.773 67.7932Z" fill="#CF6F64"/>
<path d="M312.279 52.2247C308.976 53.7348 307.81 66.8571 311.961 68.7999C316.111 70.7426 318.531 49.3547 312.279 52.2247Z" fill="#263238"/>
<path d="M329.436 60.5344C328.642 67.122 328.553 70.9987 325.021 74.372C323.927 75.4914 322.544 76.2866 321.026 76.6697C319.508 77.0529 317.914 77.009 316.419 76.5431C314.924 76.0771 313.587 75.2072 312.556 74.0293C311.525 72.8515 310.839 71.4115 310.574 69.8684C309.506 63.9518 310.98 54.1763 317.586 51.5536C318.974 50.9414 320.5 50.7116 322.006 50.888C323.513 51.0644 324.945 51.6405 326.154 52.5566C327.363 53.4728 328.305 54.6956 328.882 56.0984C329.459 57.5011 329.651 59.0327 329.436 60.5344Z" fill="#E58A7B"/>
<path d="M318.584 55.6334C323.476 54.3882 327.07 53.5405 325.781 57.6114C324.076 63.0511 322.028 68.3142 324.774 68.5526C326.452 68.7027 333.869 65.559 332.925 62.3711C332.103 59.5983 335.574 58.8389 336.192 57.4348C338.479 52.3483 331.936 53.0195 333.101 49.9287C334.267 46.838 327.803 41.8575 324.271 44.3389C318.522 48.3481 308.658 48.2863 313.842 41.6897C317.559 36.983 310.927 37.9455 310.927 37.9455C310.927 37.9455 314.937 40.321 308.19 43.9946C301.055 47.9154 307.598 58.4503 318.584 55.6334Z" fill="#263238"/>
<path d="M332.033 67.7932C331.067 69.1906 329.616 70.179 327.962 70.566C325.781 71.034 324.942 69.0824 325.763 67.122C326.496 65.3559 328.509 62.9805 330.593 63.3867C332.677 63.7929 333.154 66.0623 332.033 67.7932Z" fill="#E58A7B"/>
<path d="M299.712 144.187C299.712 144.187 293.743 197.613 293.275 217.888C292.798 238.975 313.506 304.773 313.506 304.773L324.103 300.357C324.103 300.357 311.74 240.238 313.506 219.53C315.378 196.95 323.114 144.223 323.114 144.223L299.712 144.187Z" fill="#1A4372"/>
<path opacity="0.2" d="M314.548 158.855C309.788 168.728 312.994 188.252 315.572 199.82C316.553 191.652 317.718 182.786 318.822 174.582C318.716 161.972 317.736 152.232 314.548 158.855Z" fill="black"/>
<path d="M323.635 296.86C323.688 296.86 324.889 300.234 324.889 300.234L312.667 305.373L310.742 301.788L323.635 296.86Z" fill="#1A4372"/>
<path d="M312.331 144.187C312.331 144.187 316.897 194.999 319.917 214.029C323.237 234.878 336.254 304.313 336.254 304.313H348.431C348.431 304.313 341.137 236.565 339.76 215.919C338.258 193.524 335.274 144.187 335.274 144.187H312.331Z" fill="#1A4372"/>
<path d="M348.617 301.143C348.67 301.143 349.023 304.543 349.023 304.543H335.636L334.682 300.64L348.617 301.143Z" fill="#1A4372"/>
<path opacity="0.2" d="M343.954 297.116C343.926 297.117 343.9 297.107 343.879 297.089C343.857 297.072 343.844 297.047 343.839 297.019C343.769 296.401 337.19 235.205 335.954 216.66C334.611 196.544 331.909 151.923 331.883 151.472C331.881 151.458 331.883 151.443 331.888 151.429C331.893 151.415 331.9 151.403 331.91 151.392C331.92 151.381 331.932 151.372 331.946 151.366C331.959 151.361 331.974 151.358 331.989 151.358C332.018 151.358 332.045 151.368 332.067 151.388C332.088 151.408 332.101 151.435 332.103 151.464C332.103 151.914 334.832 196.5 336.174 216.652C337.411 235.196 343.989 296.348 344.051 297.011C344.054 297.025 344.053 297.04 344.05 297.054C344.046 297.069 344.039 297.082 344.03 297.094C344.021 297.106 344.009 297.115 343.996 297.122C343.983 297.129 343.969 297.133 343.954 297.134V297.116Z" fill="black"/>
<path d="M319.334 62.3712C319.334 62.9098 318.999 63.3425 318.645 63.3425C318.292 63.3425 318.036 62.9098 318.071 62.3712C318.107 61.8325 318.407 61.3998 318.76 61.3998C319.113 61.3998 319.37 61.8413 319.334 62.3712Z" fill="#263238"/>
<path d="M313.276 62.3712C313.276 62.9098 312.932 63.3425 312.588 63.3425C312.243 63.3425 311.978 62.9098 312.005 62.3712C312.031 61.8325 312.349 61.3998 312.702 61.3998C313.056 61.3998 313.312 61.8413 313.276 62.3712Z" fill="#263238"/>
<path d="M315.184 62.6449C314.447 64.2898 313.497 65.8307 312.358 67.228C313.241 68.1111 314.892 67.7049 314.892 67.7049L315.184 62.6449Z" fill="#DF5753"/>
<path d="M315.343 69.9567C315.322 69.9567 315.302 69.9526 315.283 69.9445C315.264 69.9364 315.247 69.9245 315.233 69.9096C315.219 69.8947 315.208 69.8771 315.201 69.8579C315.194 69.8386 315.191 69.8182 315.193 69.7977C315.195 69.7548 315.214 69.7143 315.245 69.6848C315.276 69.6552 315.317 69.6387 315.36 69.6388C316.036 69.6435 316.704 69.4968 317.315 69.2095C317.926 68.9222 318.465 68.5016 318.893 67.9786C318.923 67.9519 318.962 67.9372 319.003 67.9372C319.044 67.9372 319.083 67.9519 319.113 67.9786C319.142 68.0082 319.158 68.0478 319.158 68.089C319.158 68.1302 319.142 68.1698 319.113 68.1994C318.656 68.7552 318.08 69.2015 317.427 69.5056C316.775 69.8097 316.063 69.9638 315.343 69.9567Z" fill="#263238"/>
<path d="M320.412 60.7463C320.369 60.768 320.322 60.7793 320.275 60.7793C320.227 60.7793 320.18 60.768 320.138 60.7463C319.807 60.5328 319.432 60.3999 319.04 60.3585C318.649 60.3171 318.254 60.3683 317.886 60.5079C317.85 60.5258 317.811 60.5364 317.771 60.539C317.731 60.5416 317.691 60.5361 317.653 60.5229C317.615 60.5098 317.58 60.4892 317.551 60.4623C317.521 60.4355 317.497 60.4029 317.48 60.3666C317.447 60.288 317.446 60.1997 317.478 60.1206C317.509 60.0414 317.57 59.9776 317.648 59.9427C318.109 59.7542 318.61 59.6798 319.106 59.7259C319.603 59.7721 320.081 59.9373 320.5 60.2077C320.534 60.2307 320.563 60.2602 320.585 60.2945C320.607 60.3288 320.623 60.3671 320.63 60.4074C320.637 60.4477 320.637 60.489 320.628 60.529C320.619 60.569 320.603 60.6068 320.579 60.6404C320.535 60.691 320.476 60.7278 320.412 60.7463Z" fill="#263238"/>
<path d="M310.936 58.9802C310.889 58.9688 310.846 58.9443 310.813 58.9095C310.783 58.8808 310.76 58.8464 310.744 58.8085C310.728 58.7706 310.72 58.7299 310.72 58.6888C310.72 58.6476 310.728 58.6069 310.744 58.569C310.76 58.5311 310.783 58.4968 310.813 58.468C311.151 58.0884 311.573 57.7921 312.044 57.6021C312.516 57.4122 313.025 57.3338 313.532 57.373C313.573 57.3793 313.612 57.3938 313.647 57.4157C313.682 57.4376 313.711 57.4665 313.735 57.5004C313.758 57.5343 313.774 57.5727 313.782 57.613C313.789 57.6534 313.789 57.6949 313.78 57.7351C313.761 57.8168 313.713 57.8889 313.644 57.9376C313.576 57.9864 313.492 58.0086 313.409 58C313.008 57.9747 312.606 58.0411 312.234 58.1941C311.862 58.3471 311.53 58.5827 311.263 58.883C311.223 58.9277 311.171 58.9605 311.113 58.9776C311.056 58.9947 310.994 58.9956 310.936 58.9802Z" fill="#263238"/>
<path d="M344.157 95.0711L334.973 92.625C334.973 92.625 325.966 114.799 322.778 116.238C318.451 118.216 307.492 125.069 302.83 128.31C302.574 129.414 302.777 132.336 303.36 133.14C311.307 131.692 326.522 125.837 329.701 122.861C336.951 116.07 344.157 95.0711 344.157 95.0711Z" fill="#E58A7B"/>
<path d="M337.746 313.7C337.298 313.736 336.851 313.614 336.483 313.356C336.37 313.253 336.285 313.123 336.237 312.977C336.189 312.832 336.179 312.676 336.21 312.526C336.215 312.432 336.246 312.342 336.299 312.264C336.352 312.186 336.425 312.124 336.51 312.084C337.252 311.705 339.327 313.021 339.565 313.171C339.591 313.187 339.612 313.211 339.623 313.24C339.634 313.268 339.635 313.3 339.627 313.33C339.62 313.36 339.604 313.389 339.583 313.412C339.561 313.435 339.534 313.452 339.503 313.462C338.928 313.604 338.339 313.683 337.746 313.7ZM336.863 312.323C336.796 312.308 336.727 312.308 336.66 312.323C336.626 312.34 336.598 312.367 336.579 312.4C336.56 312.433 336.552 312.47 336.554 312.508C336.53 312.611 336.534 312.718 336.565 312.819C336.596 312.92 336.653 313.011 336.731 313.082C337.075 313.391 337.94 313.427 339.08 313.206C338.401 312.759 337.637 312.459 336.837 312.323H336.863Z" fill="#1A4372"/>
<path d="M339.459 313.462C339.436 313.469 339.412 313.469 339.389 313.462C338.726 313.091 337.481 311.634 337.667 310.892C337.694 310.775 337.761 310.67 337.855 310.595C337.95 310.519 338.067 310.478 338.188 310.477C338.306 310.461 338.427 310.471 338.541 310.506C338.655 310.542 338.761 310.601 338.85 310.68C339.583 311.307 339.627 313.232 339.627 313.33C339.631 313.359 339.626 313.388 339.611 313.414C339.597 313.439 339.575 313.459 339.548 313.471C339.518 313.477 339.487 313.474 339.459 313.462ZM338.276 310.769H338.214C338.011 310.769 337.985 310.884 337.976 310.928C337.87 311.36 338.656 312.464 339.309 312.985C339.306 312.239 339.075 311.512 338.647 310.901C338.544 310.812 338.412 310.764 338.276 310.769Z" fill="#1A4372"/>
<path d="M314.301 312.597C313.76 312.785 313.172 312.785 312.632 312.597C312.509 312.53 312.405 312.434 312.329 312.317C312.254 312.199 312.209 312.065 312.199 311.926C312.188 311.838 312.199 311.75 312.231 311.668C312.264 311.586 312.317 311.514 312.384 311.458C313.091 310.822 315.979 311.458 316.305 311.581C316.336 311.589 316.364 311.608 316.383 311.633C316.402 311.659 316.412 311.69 316.411 311.722C316.413 311.756 316.404 311.788 316.387 311.817C316.369 311.845 316.344 311.867 316.314 311.881C315.664 312.175 314.99 312.414 314.301 312.597ZM312.861 311.546C312.76 311.566 312.666 311.612 312.588 311.678C312.559 311.699 312.538 311.728 312.525 311.761C312.513 311.794 312.51 311.829 312.517 311.864C312.523 311.956 312.552 312.046 312.601 312.125C312.65 312.204 312.719 312.269 312.799 312.314C313.268 312.561 314.354 312.367 315.758 311.775C314.812 311.537 313.833 311.459 312.861 311.546Z" fill="#1A4372"/>
<path d="M316.288 311.881H316.217C315.334 311.722 313.568 310.707 313.515 309.947C313.515 309.771 313.594 309.524 314.018 309.382C314.161 309.331 314.313 309.31 314.465 309.319C314.617 309.328 314.765 309.368 314.901 309.435C315.855 309.903 316.358 311.599 316.385 311.678C316.391 311.705 316.39 311.733 316.382 311.759C316.375 311.785 316.36 311.809 316.341 311.828C316.327 311.85 316.309 311.868 316.288 311.881ZM314.195 309.647H314.106C313.833 309.744 313.833 309.859 313.833 309.894C313.833 310.354 315.113 311.193 316.005 311.475C315.8 310.766 315.365 310.145 314.769 309.709C314.591 309.619 314.387 309.597 314.195 309.647Z" fill="#1A4372"/>
<path d="M303.58 127.789L294.37 132.027L293.301 134.677L296.701 136.964C296.701 136.964 303.059 136.275 304.87 132.186L303.58 127.789Z" fill="#E58A7B"/>
<path d="M303.969 133.29C303.763 131.521 303.179 129.816 302.256 128.292L303.713 127.197C304.809 128.953 305.508 130.927 305.762 132.981L303.969 133.29Z" fill="#263238"/>
<path d="M305.541 129.043C305.735 129.349 305.831 129.708 305.815 130.07C305.798 130.433 305.67 130.781 305.449 131.069C305.227 131.356 304.922 131.568 304.576 131.676C304.23 131.784 303.858 131.783 303.513 131.673C303.167 131.562 302.864 131.348 302.644 131.059C302.425 130.77 302.299 130.42 302.285 130.058C302.272 129.695 302.37 129.337 302.567 129.032C302.764 128.727 303.05 128.49 303.386 128.354C303.763 128.162 304.202 128.126 304.605 128.255C305.009 128.384 305.345 128.667 305.541 129.043Z" fill="#263238"/>
<path d="M288.144 135.454L289.372 136.69L297.637 133.158L294.37 132.027L288.144 135.454Z" fill="#E58A7B"/>
<path opacity="0.2" d="M323.635 296.86C323.688 296.86 324.889 300.234 324.889 300.234L312.667 305.373L310.742 301.788L323.635 296.86Z" fill="black"/>
<path opacity="0.2" d="M348.617 301.143C348.67 301.143 349.023 304.543 349.023 304.543H335.636L334.682 300.64L348.617 301.143Z" fill="black"/>
<path d="M346.55 92.5278C348.979 100.361 339.486 111.072 339.486 111.072L326.372 105.721C327.927 101.194 329.719 96.7514 331.741 92.413C335.768 83.7325 344.095 84.6244 346.55 92.5278Z" fill="#1A4372"/>
<path opacity="0.2" d="M346.55 92.5278C348.979 100.361 339.486 111.072 339.486 111.072L326.372 105.721C327.927 101.194 329.719 96.7514 331.741 92.413C335.768 83.7325 344.095 84.6244 346.55 92.5278Z" fill="black"/>
<path d="M216.245 14.0498H210.602V14.9594H216.245V14.0498Z" fill="#1A4372"/>
<path d="M289.291 50.0493L288.608 65.205L289.516 65.246L290.199 50.0903L289.291 50.0493Z" fill="#1A4372"/>
<path d="M287.535 18.1296H183.333L173.637 235.116H277.839L287.535 18.1296Z" fill="#1A4372"/>
<path opacity="0.56" d="M284.427 21.1143H180.225L170.529 238.101H274.731L284.427 21.1143Z" fill="#FAFAFA"/>
<path opacity="0.07" d="M281.318 24.0903H177.117L167.412 241.077H271.613L281.318 24.0903Z" fill="#1A4372"/>
<path d="M269.459 118.728H180.516L179.775 135.33H268.717L269.459 118.728Z" fill="white"/>
<path d="M229.429 106.613H181.055L180.728 114.039H229.103L229.429 106.613Z" fill="#1A4372"/>
<path d="M267.454 163.535H178.512L177.77 180.137H266.712L267.454 163.535Z" fill="white"/>
<path opacity="0.47" d="M251.144 202.558H191.334L190.442 222.453H250.252L251.144 202.558Z" fill="#1A4372"/>
<path d="M247.144 225.544H187.334C187.308 225.551 187.28 225.551 187.254 225.544C187.245 225.518 187.245 225.49 187.254 225.465L188.137 205.56C188.137 205.547 188.14 205.533 188.145 205.521C188.151 205.509 188.159 205.497 188.169 205.488C188.179 205.479 188.19 205.472 188.203 205.468C188.216 205.463 188.23 205.462 188.243 205.463H248.053C248.064 205.458 248.076 205.455 248.089 205.455C248.101 205.455 248.113 205.458 248.124 205.463C248.13 205.474 248.133 205.486 248.133 205.498C248.133 205.511 248.13 205.523 248.124 205.534L247.258 225.482C247.248 225.503 247.231 225.52 247.211 225.531C247.19 225.542 247.167 225.547 247.144 225.544ZM187.44 225.332H247.038L247.921 205.64H188.323L187.44 225.332Z" fill="white"/>
<path d="M218.983 151.419H179.05L178.724 158.855H218.647L218.983 151.419Z" fill="#1A4372"/>
<path d="M250.005 65.0998C249.776 69.9314 248.058 74.5739 245.086 78.3899C242.886 81.2724 240.054 83.6124 236.809 85.2305C233.564 86.8485 229.991 87.7015 226.365 87.724C223.435 87.7463 220.531 87.1685 217.832 86.0261C215.134 84.8837 212.698 83.2009 210.674 81.0814C208.651 78.9618 207.083 76.4505 206.066 73.7019C205.05 70.9534 204.607 68.0259 204.765 65.0998C205.076 59.0279 207.694 53.3039 212.085 49.0985C216.476 44.8931 222.308 42.524 228.387 42.4757C231.32 42.4483 234.227 43.0226 236.929 44.163C239.63 45.3035 242.07 46.9858 244.096 49.1061C246.122 51.2265 247.691 53.7397 248.708 56.4906C249.724 59.2415 250.165 62.1716 250.005 65.0998Z" fill="white"/>
<path d="M252.133 47.2089C252.075 48.4936 251.618 49.7284 250.826 50.7412C250.24 51.5068 249.486 52.1283 248.623 52.5584C247.76 52.9884 246.81 53.2156 245.846 53.2226C244.911 53.2283 243.99 53.0051 243.162 52.5726C242.333 52.14 241.624 51.5112 241.095 50.7412C240.394 49.7007 240.047 48.4621 240.106 47.2089C240.191 45.5968 240.888 44.078 242.055 42.9622C243.221 41.8463 244.77 41.2176 246.384 41.2041C247.163 41.197 247.935 41.3494 248.653 41.652C249.37 41.9546 250.018 42.4009 250.557 42.9635C251.096 43.5261 251.513 44.193 251.784 44.9231C252.055 45.6533 252.174 46.4312 252.133 47.2089Z" fill="#1A4372"/>
<path d="M190.098 127.029C190.055 127.741 189.745 128.41 189.228 128.901C188.712 129.393 188.029 129.671 187.316 129.678C186.972 129.683 186.63 129.616 186.313 129.483C185.995 129.35 185.709 129.153 185.47 128.905C185.232 128.656 185.047 128.362 184.927 128.039C184.807 127.717 184.755 127.373 184.773 127.029C184.811 126.316 185.12 125.645 185.637 125.152C186.154 124.66 186.84 124.384 187.554 124.38C187.898 124.377 188.239 124.445 188.556 124.578C188.873 124.712 189.159 124.908 189.397 125.156C189.635 125.405 189.82 125.699 189.94 126.021C190.061 126.343 190.114 126.686 190.098 127.029Z" fill="#263238"/>
<path d="M202.001 127.029C201.961 127.742 201.651 128.412 201.134 128.904C200.618 129.396 199.933 129.673 199.22 129.678C198.876 129.681 198.536 129.614 198.219 129.48C197.903 129.347 197.617 129.15 197.38 128.902C197.143 128.653 196.958 128.359 196.839 128.037C196.719 127.715 196.667 127.372 196.685 127.029C196.723 126.318 197.032 125.648 197.547 125.155C198.062 124.663 198.746 124.386 199.458 124.38C199.802 124.376 200.144 124.443 200.461 124.576C200.778 124.709 201.065 124.905 201.304 125.154C201.542 125.402 201.727 125.697 201.847 126.019C201.967 126.342 202.019 126.686 202.001 127.029Z" fill="#263238"/>
<path d="M213.914 127.029C213.873 127.742 213.563 128.412 213.047 128.904C212.53 129.396 211.846 129.673 211.132 129.678C210.788 129.681 210.448 129.614 210.131 129.48C209.814 129.347 209.528 129.15 209.29 128.902C209.051 128.654 208.867 128.36 208.746 128.038C208.626 127.716 208.572 127.373 208.589 127.029C208.629 126.317 208.939 125.647 209.456 125.155C209.973 124.663 210.657 124.386 211.371 124.38C211.715 124.376 212.056 124.443 212.374 124.576C212.691 124.709 212.978 124.905 213.216 125.154C213.455 125.402 213.639 125.697 213.759 126.019C213.879 126.342 213.932 126.686 213.914 127.029Z" fill="#263238"/>
<path d="M188.093 171.836C188.051 172.548 187.74 173.217 187.224 173.708C186.708 174.2 186.024 174.478 185.311 174.485C184.968 174.488 184.627 174.421 184.31 174.287C183.993 174.154 183.707 173.957 183.469 173.709C183.231 173.461 183.046 173.167 182.925 172.845C182.805 172.523 182.751 172.179 182.768 171.836C182.808 171.124 183.118 170.453 183.635 169.961C184.152 169.469 184.836 169.192 185.55 169.187C185.894 169.184 186.234 169.251 186.551 169.385C186.868 169.518 187.154 169.715 187.392 169.963C187.63 170.211 187.815 170.505 187.936 170.827C188.056 171.149 188.11 171.493 188.093 171.836Z" fill="#263238"/>
<path d="M199.997 171.836C199.956 172.547 199.648 173.216 199.133 173.708C198.618 174.199 197.936 174.477 197.224 174.485C196.88 174.489 196.538 174.423 196.221 174.29C195.904 174.157 195.617 173.96 195.378 173.712C195.14 173.463 194.955 173.169 194.835 172.846C194.715 172.523 194.663 172.18 194.681 171.836C194.721 171.124 195.031 170.453 195.548 169.961C196.064 169.469 196.749 169.192 197.462 169.187C197.806 169.184 198.146 169.251 198.463 169.385C198.779 169.519 199.065 169.716 199.302 169.964C199.539 170.212 199.724 170.506 199.843 170.828C199.963 171.15 200.015 171.493 199.997 171.836Z" fill="#263238"/>
<path d="M211.936 171.836C211.895 172.548 211.585 173.219 211.069 173.711C210.552 174.203 209.868 174.48 209.154 174.485C208.811 174.487 208.47 174.418 208.154 174.285C207.838 174.151 207.552 173.954 207.314 173.706C207.077 173.458 206.892 173.165 206.771 172.843C206.65 172.522 206.595 172.179 206.611 171.836C206.653 171.124 206.964 170.455 207.48 169.964C207.996 169.472 208.68 169.194 209.393 169.187C209.737 169.183 210.078 169.249 210.395 169.382C210.713 169.515 211 169.712 211.238 169.96C211.476 170.209 211.661 170.503 211.781 170.826C211.901 171.149 211.954 171.492 211.936 171.836Z" fill="#263238"/>
<path d="M223.822 171.836C223.779 172.548 223.469 173.217 222.953 173.708C222.436 174.2 221.753 174.478 221.04 174.485C220.697 174.487 220.357 174.418 220.04 174.285C219.724 174.151 219.438 173.954 219.201 173.706C218.963 173.458 218.778 173.165 218.657 172.843C218.536 172.522 218.481 172.179 218.497 171.836C218.539 171.124 218.85 170.455 219.366 169.964C219.882 169.472 220.566 169.194 221.279 169.187C221.622 169.184 221.963 169.251 222.28 169.385C222.597 169.518 222.883 169.715 223.121 169.963C223.359 170.211 223.544 170.505 223.665 170.827C223.785 171.149 223.839 171.493 223.822 171.836Z" fill="#263238"/>
<path d="M235.779 171.836C235.736 172.548 235.426 173.217 234.909 173.708C234.393 174.2 233.71 174.478 232.997 174.485C232.653 174.489 232.311 174.423 231.994 174.29C231.677 174.157 231.39 173.96 231.151 173.712C230.913 173.463 230.728 173.169 230.608 172.846C230.488 172.523 230.436 172.18 230.454 171.836C230.494 171.124 230.804 170.453 231.321 169.961C231.837 169.469 232.522 169.192 233.235 169.187C233.579 169.184 233.92 169.251 234.237 169.385C234.554 169.518 234.84 169.715 235.078 169.963C235.316 170.211 235.501 170.505 235.621 170.827C235.742 171.149 235.795 171.493 235.779 171.836Z" fill="#263238"/>
<path d="M233.971 63.9215C237.667 60.3071 237.864 54.5136 234.409 50.9813C230.955 47.4491 225.159 47.5158 221.463 51.1302C217.766 54.7447 217.57 60.5382 221.025 64.0704C224.479 67.6026 230.275 67.536 233.971 63.9215Z" fill="#1A4372"/>
<path d="M245.086 78.39C242.886 81.2724 240.054 83.6125 236.809 85.2305C233.564 86.8485 229.991 87.7015 226.365 87.724C222.849 87.7538 219.379 86.918 216.262 85.2902C213.145 83.6624 210.477 81.2927 208.492 78.39C212.784 74.1159 219.574 71.3254 227.098 71.3254C234.622 71.3254 241.174 74.1159 245.086 78.39Z" fill="#1A4372"/>
<path opacity="0.1" d="M233.971 63.9215C237.667 60.3071 237.864 54.5136 234.409 50.9813C230.955 47.4491 225.159 47.5158 221.463 51.1302C217.766 54.7447 217.57 60.5382 221.025 64.0704C224.479 67.6026 230.275 67.536 233.971 63.9215Z" fill="white"/>
<path opacity="0.1" d="M245.086 78.39C242.886 81.2724 240.054 83.6125 236.809 85.2305C233.564 86.8485 229.991 87.7015 226.365 87.724C222.849 87.7538 219.379 86.918 216.262 85.2902C213.145 83.6624 210.477 81.2927 208.492 78.39C212.784 74.1159 219.574 71.3254 227.098 71.3254C234.622 71.3254 241.174 74.1159 245.086 78.39Z" fill="white"/>
<path d="M115.161 139.33C114.322 141.167 113.439 143.189 112.67 145.15C111.902 147.11 111.116 149.132 110.436 151.146C109.048 155.114 107.99 159.19 107.275 163.332L107.081 164.63C107.062 164.853 107.083 165.077 107.142 165.292C107.351 166.024 107.679 166.717 108.114 167.341C109.248 168.958 110.563 170.439 112.035 171.757C113.586 173.199 115.213 174.558 116.909 175.827C118.605 177.134 120.388 178.406 122.146 179.607L120.494 182.707C116.298 180.878 112.315 178.595 108.617 175.898C106.644 174.459 104.863 172.774 103.319 170.882C102.403 169.756 101.689 168.481 101.208 167.112C100.929 166.256 100.786 165.362 100.784 164.462C100.784 164.25 100.784 163.941 100.784 163.791V163.359L100.873 162.476C101.379 157.875 102.346 153.337 103.76 148.929C104.449 146.757 105.182 144.593 106.021 142.483C106.86 140.372 107.725 138.306 108.794 136.16L115.161 139.33Z" fill="#E58A7B"/>
<path d="M120.901 179.059L127.144 175.898L125.528 182.751C125.528 182.751 121.245 183.952 119.258 181.868L120.901 179.059Z" fill="#E58A7B"/>
<path d="M132.857 177.02L131.197 182.689L125.528 182.751L127.144 175.898L132.857 177.02Z" fill="#E58A7B"/>
<path d="M141.67 106.268C142.004 107.492 142.469 108.676 143.057 109.801C142.885 109.995 142.664 110.14 142.417 110.219C142.169 110.299 141.905 110.31 141.653 110.251L141.67 106.268Z" fill="#DF5753"/>
<path d="M141.485 106.321C141.851 106.321 142.147 105.867 142.147 105.306C142.147 104.745 141.851 104.29 141.485 104.29C141.119 104.29 140.823 104.745 140.823 105.306C140.823 105.867 141.119 106.321 141.485 106.321Z" fill="#263238"/>
<path d="M141.291 104.326L142.633 103.946C142.633 103.946 141.979 104.988 141.291 104.326Z" fill="#263238"/>
<path d="M124.424 112.75C125.228 116.856 126.031 124.389 123.152 127.135C123.152 127.135 124.283 131.303 131.921 131.303C140.319 131.303 135.93 127.135 135.93 127.135C131.347 126.04 131.462 122.64 132.266 119.444L124.424 112.75Z" fill="#E58A7B"/>
<path d="M122.19 103.39C122.614 110.251 122.649 113.165 126.111 116.689C131.33 121.987 139.666 119.974 141.299 113.156C142.774 106.975 141.838 96.8019 135.118 94.0732C133.643 93.4656 132.037 93.2442 130.453 93.4302C128.868 93.6162 127.357 94.2033 126.063 95.136C124.769 96.0687 123.734 97.3162 123.056 98.7605C122.378 100.205 122.08 101.798 122.19 103.39Z" fill="#E58A7B"/>
<path d="M122.87 95.6716C119.426 96.9255 114.834 95.9895 116.635 106.613C118.543 117.863 115.611 121.563 115.611 121.563C115.611 121.563 128.672 124.345 142.006 121.395C142.006 121.395 137.935 114.278 139.074 109.032C140.531 102.409 139.383 99.9633 139.383 99.9633C139.383 99.9633 127.709 93.9054 122.87 95.6716Z" fill="#263238"/>
<path d="M137.44 106.966C137.444 108.271 137.818 109.548 138.518 110.648C139.454 112.079 140.558 111.531 140.831 110.013C141.079 108.679 140.893 106.321 139.701 105.403C138.509 104.485 137.458 105.385 137.44 106.966Z" fill="#E58A7B"/>
<path d="M119.876 96.8284C118.887 94.0467 123.603 89.7638 133.581 91.53C143.56 93.2961 143.993 101.606 143.993 101.606L141.979 99.2038L142.068 101.729L131.815 103.699L119.876 96.8284Z" fill="#263238"/>
<path d="M120.724 127.603C120.665 127.2 120.766 126.79 121.005 126.46C121.244 126.13 121.603 125.906 122.004 125.837C125.113 125.325 132.177 124.283 135.727 124.777C138.376 125.148 139.065 126.685 139.18 127.948C139.198 128.169 139.168 128.391 139.093 128.6C139.018 128.809 138.899 128.999 138.744 129.158C138.59 129.317 138.403 129.441 138.196 129.521C137.989 129.602 137.768 129.638 137.546 129.625L122.199 128.937C121.837 128.918 121.492 128.776 121.224 128.533C120.955 128.29 120.778 127.961 120.724 127.603Z" fill="#1A4372"/>
<path opacity="0.6" d="M120.724 127.603C120.665 127.2 120.766 126.79 121.005 126.46C121.244 126.13 121.603 125.906 122.004 125.837C125.113 125.325 132.177 124.283 135.727 124.777C138.376 125.148 139.065 126.685 139.18 127.948C139.198 128.169 139.168 128.391 139.093 128.6C139.018 128.809 138.899 128.999 138.744 129.158C138.59 129.317 138.403 129.441 138.196 129.521C137.989 129.602 137.768 129.638 137.546 129.625L122.199 128.937C121.837 128.918 121.492 128.776 121.224 128.533C120.955 128.29 120.778 127.961 120.724 127.603Z" fill="black"/>
<path d="M129.599 281.875L135.295 285.831L144.823 272.912L139.127 268.964L129.599 281.875Z" fill="#E58A7B"/>
<path d="M116.317 281.619L122.331 285.045L130.764 271.384L124.751 267.958L116.317 281.619Z" fill="#E58A7B"/>
<path d="M144.814 272.912L139.904 279.57L134.208 275.623L139.118 268.964L144.814 272.912Z" fill="#CF6F64"/>
<path d="M124.742 267.958L130.764 271.393L126.42 278.431L120.397 274.996L124.742 267.958Z" fill="#CF6F64"/>
<path d="M134.403 170.732C134.403 170.732 156.638 198.752 152.461 225.553C149.097 247.197 129.581 276.506 129.581 276.506L120.406 271.949C126.873 258.99 132.392 245.58 136.919 231.823C138.315 227.552 138.723 223.019 138.111 218.567C137.499 214.116 135.884 209.861 133.387 206.125C122.119 189.674 104.069 199.467 116.211 170.732H134.403Z" fill="#1A4372"/>
<path opacity="0.6" d="M134.403 170.732C134.403 170.732 156.638 198.752 152.461 225.553C149.097 247.197 129.581 276.506 129.581 276.506L120.406 271.949C126.873 258.99 132.392 245.58 136.919 231.823C138.315 227.552 138.723 223.019 138.111 218.567C137.499 214.116 135.884 209.861 133.387 206.125C122.119 189.674 104.069 199.467 116.211 170.732H134.403Z" fill="black"/>
<path opacity="0.4" d="M145.309 188.729L142.076 185.515C142.076 185.771 148.337 224.423 150.095 235.284C151.132 232.111 151.926 228.864 152.47 225.571C154.537 212.422 150.218 198.99 145.309 188.729Z" fill="black"/>
<path d="M144.328 170.732C144.328 170.732 171.103 205.949 171.862 227.063C172.489 244.724 142.721 278.943 142.721 278.943L134.067 273.344C134.067 273.344 151.49 249.042 155.879 229.191C154.183 209.516 118.331 170.732 118.331 170.732H144.328Z" fill="#1A4372"/>
<path opacity="0.6" d="M144.328 170.732C144.328 170.732 171.103 205.949 171.862 227.063C172.489 244.724 142.721 278.943 142.721 278.943L134.067 273.344C134.067 273.344 151.49 249.042 155.879 229.191C154.183 209.516 118.331 170.732 118.331 170.732H144.328Z" fill="black"/>
<path d="M111.204 128.707C108.343 129.387 105.597 139.79 105.597 139.79L116.785 147.26C116.785 147.26 120.512 139.03 119.205 135.427C117.854 131.674 114.799 127.85 111.204 128.707Z" fill="#1A4372"/>
<path opacity="0.2" d="M113.394 135.41L112.617 144.479L116.777 147.269C117.925 144.684 118.775 141.976 119.311 139.198L113.394 135.41Z" fill="black"/>
<path d="M147.64 128.91C147.64 128.91 150.942 130.067 144.328 170.723H116.194C116.671 159.243 116.679 152.179 111.204 128.707C115.144 127.895 119.137 127.37 123.152 127.135C127.406 126.83 131.676 126.83 135.93 127.135C141.423 127.639 147.64 128.91 147.64 128.91Z" fill="#1A4372"/>
<path d="M150.501 135.409C151.137 137.176 151.808 139.074 152.514 140.902C153.221 142.73 153.892 144.611 154.607 146.465L156.771 152.011L157.318 153.398L157.601 154.086L157.733 154.431C157.733 154.493 157.733 154.493 157.733 154.484C157.572 154.256 157.36 154.069 157.115 153.936C156.766 153.731 156.372 153.612 155.967 153.592C155.631 153.581 155.296 153.645 154.987 153.777C154.581 153.963 154.581 154.042 154.589 154.033C154.663 153.974 154.728 153.906 154.784 153.83C155.273 153.188 155.696 152.499 156.047 151.773C156.462 150.96 156.859 150.095 157.256 149.221C158.033 147.455 158.749 145.627 159.464 143.781C160.179 141.935 160.859 140.072 161.522 138.191L163.535 132.557L166.935 133.44C166.264 137.467 165.398 141.388 164.356 145.379C163.853 147.366 163.261 149.335 162.59 151.322C162.254 152.32 161.884 153.309 161.46 154.325C161.018 155.427 160.474 156.485 159.835 157.486C159.6 157.823 159.34 158.142 159.058 158.44C158.607 158.927 158.06 159.315 157.451 159.579C156.91 159.811 156.325 159.92 155.737 159.897C155.079 159.872 154.438 159.681 153.874 159.341C153.209 158.925 152.657 158.352 152.267 157.672C152.135 157.442 152.02 157.212 151.94 157.045L151.772 156.709L151.437 156.02L150.766 154.651C149.883 152.815 149 150.96 148.231 149.097C147.463 147.234 146.651 145.344 145.891 143.445C145.132 141.547 144.452 139.648 143.807 137.599L150.501 135.409Z" fill="#E58A7B"/>
<path d="M147.64 128.91C151.022 129.714 154.828 139.71 154.828 139.71L144.77 148.267C144.77 148.267 138.262 137.37 139.577 133.776C140.946 130.032 143.224 127.859 147.64 128.91Z" fill="#1A4372"/>
<path d="M165.133 129.396L168.666 126.446L171.121 130.27L169.31 133.458C169.31 133.458 166.431 136.107 163.888 134.756C163.485 133.849 163.388 132.835 163.612 131.867C163.837 130.9 164.371 130.032 165.133 129.396Z" fill="#E58A7B"/>
<path d="M175.041 126.455L174.776 127.418L169.187 128.354L168.639 126.446L175.041 126.455Z" fill="#E58A7B"/>
<path d="M143.41 279.393L133.325 272.876L135.136 269.733L146.465 276.7L143.41 279.393Z" fill="#1A4372"/>
<path d="M126.278 284.586C125.394 284.478 124.543 284.176 123.788 283.703C123.757 283.692 123.73 283.672 123.711 283.645C123.692 283.618 123.681 283.586 123.681 283.553C123.681 283.52 123.692 283.487 123.711 283.461C123.73 283.434 123.757 283.413 123.788 283.403C124.062 283.314 126.437 282.581 127.126 283.146C127.204 283.211 127.262 283.295 127.297 283.389C127.331 283.484 127.339 283.586 127.32 283.685C127.308 283.844 127.255 283.997 127.167 284.13C127.079 284.263 126.959 284.371 126.817 284.445C126.652 284.535 126.467 284.583 126.278 284.586ZM124.292 283.614C125.395 284.18 126.278 284.383 126.702 284.171C126.795 284.12 126.872 284.046 126.928 283.956C126.984 283.866 127.015 283.764 127.02 283.659C127.02 283.517 127.02 283.455 126.941 283.42C126.57 283.12 125.245 283.35 124.274 283.614H124.292Z" fill="#263238"/>
<path d="M123.85 283.765C123.803 283.764 123.759 283.745 123.726 283.712C123.713 283.687 123.706 283.66 123.706 283.632C123.706 283.604 123.713 283.577 123.726 283.553C123.726 283.473 124.3 281.557 125.201 281.124C125.316 281.072 125.441 281.045 125.568 281.045C125.694 281.045 125.819 281.072 125.934 281.124C126.058 281.163 126.165 281.243 126.239 281.35C126.313 281.457 126.348 281.586 126.34 281.716C126.278 282.511 124.662 283.606 123.921 283.791L123.85 283.765ZM125.563 281.354C125.477 281.356 125.393 281.378 125.316 281.416C124.768 281.681 124.318 282.714 124.097 283.341C124.874 283.014 125.943 282.149 125.978 281.663C125.978 281.583 125.978 281.486 125.775 281.398C125.709 281.362 125.637 281.338 125.563 281.327V281.354Z" fill="#263238"/>
<path d="M138.88 288.401C137.882 288.401 136.495 287.12 135.736 286.334C135.717 286.307 135.706 286.275 135.706 286.242C135.706 286.208 135.717 286.176 135.736 286.149C135.753 286.12 135.778 286.097 135.808 286.082C135.837 286.066 135.87 286.059 135.904 286.061C136.257 286.061 139.321 286.52 139.754 287.385C139.8 287.463 139.824 287.551 139.824 287.641C139.824 287.731 139.8 287.82 139.754 287.897C139.689 288.032 139.591 288.148 139.469 288.235C139.347 288.321 139.205 288.375 139.056 288.392L138.88 288.401ZM136.319 286.458C137.431 287.535 138.412 288.136 138.968 288.065C139.065 288.052 139.158 288.016 139.238 287.959C139.318 287.902 139.383 287.826 139.427 287.738C139.447 287.708 139.458 287.673 139.458 287.637C139.458 287.601 139.447 287.565 139.427 287.535C139.198 287.058 137.564 286.652 136.319 286.458Z" fill="#263238"/>
<path d="M136.416 286.414C136.218 286.419 136.02 286.405 135.824 286.37C135.797 286.366 135.771 286.354 135.75 286.337C135.728 286.32 135.711 286.298 135.701 286.272C135.688 286.246 135.681 286.218 135.681 286.189C135.681 286.159 135.688 286.131 135.701 286.105C135.754 286.043 136.946 284.603 138.076 284.506C138.396 284.481 138.713 284.583 138.959 284.789C139.304 285.089 139.286 285.354 139.198 285.522C138.977 286.122 137.449 286.414 136.416 286.414ZM136.186 286.087C137.175 286.14 138.756 285.813 138.959 285.381C138.959 285.381 139.03 285.239 138.8 285.045C138.709 284.966 138.602 284.906 138.487 284.869C138.371 284.833 138.25 284.82 138.129 284.833C137.368 285.046 136.69 285.486 136.186 286.096V286.087Z" fill="#263238"/>
<path d="M124.088 282.811L116.6 280.691C116.471 280.652 116.332 280.662 116.21 280.719C116.088 280.776 115.991 280.877 115.938 281.001L113.412 286.679C113.353 286.824 113.325 286.98 113.33 287.137C113.336 287.294 113.374 287.448 113.444 287.589C113.513 287.73 113.611 287.855 113.732 287.955C113.853 288.056 113.994 288.129 114.145 288.171C116.794 288.86 118.066 289.054 121.36 289.999C123.391 290.564 126.287 291.615 129.087 292.41C131.886 293.205 132.822 290.476 131.736 289.893C126.826 287.297 126.437 285.478 125.095 283.535C124.855 283.183 124.498 282.927 124.088 282.811Z" fill="#1A4372"/>
<path d="M135.939 285.301L129.546 280.886C129.437 280.807 129.304 280.77 129.17 280.783C129.037 280.796 128.913 280.858 128.822 280.956L124.583 285.513C124.48 285.631 124.403 285.769 124.357 285.919C124.311 286.069 124.298 286.227 124.318 286.382C124.338 286.538 124.391 286.687 124.473 286.82C124.555 286.954 124.665 287.068 124.795 287.156C127.047 288.666 128.212 289.275 131.029 291.226C132.795 292.427 136.213 295.094 138.597 296.754C140.981 298.415 142.756 296.136 141.909 295.236C138.111 291.182 137.281 288.639 136.654 286.334C136.546 285.916 136.292 285.55 135.939 285.301Z" fill="#1A4372"/>
<path d="M130.756 277.089L119.232 271.358L120.424 268.231L132.734 274.272L130.756 277.089Z" fill="#1A4372"/>
<path d="M115.77 169.072L114.799 171.615C114.701 171.809 114.931 172.013 115.258 172.013H144.47C144.726 172.013 144.938 171.889 144.955 171.73L145.202 169.204C145.202 169.037 144.999 168.887 144.726 168.887H116.229C116.143 168.878 116.057 168.891 115.977 168.923C115.897 168.956 115.826 169.007 115.77 169.072Z" fill="#1A4372"/>
<path opacity="0.4" d="M115.77 169.072L114.799 171.615C114.701 171.809 114.931 172.013 115.258 172.013H144.47C144.726 172.013 144.938 171.889 144.955 171.73L145.202 169.204C145.202 169.037 144.999 168.887 144.726 168.887H116.229C116.143 168.878 116.057 168.891 115.977 168.923C115.897 168.956 115.826 169.007 115.77 169.072Z" fill="white"/>
<path d="M120.371 172.26H119.602C119.452 172.26 119.338 172.18 119.346 172.083L119.708 168.807C119.708 168.719 119.85 168.639 120 168.639H120.768C120.918 168.639 121.033 168.719 121.024 168.807L120.662 172.083C120.653 172.18 120.521 172.26 120.371 172.26Z" fill="#1A4372"/>
<path d="M138.385 172.26H137.626C137.476 172.26 137.361 172.18 137.37 172.083L137.723 168.807C137.723 168.719 137.873 168.639 138.023 168.639H138.783C138.933 168.639 139.056 168.719 139.039 168.807L138.686 172.083C138.641 172.18 138.544 172.26 138.385 172.26Z" fill="#1A4372"/>
<g style="mix-blend-mode:multiply">
<path d="M119.7 321.807C132.765 321.807 143.357 321.04 143.357 320.094C143.357 319.148 132.765 318.381 119.7 318.381C106.634 318.381 96.0422 319.148 96.0422 320.094C96.0422 321.04 106.634 321.807 119.7 321.807Z" fill="#F5F5F5"/>
</g>
<path d="M134.111 317.674C129.925 316.456 125.281 314.893 122.472 313.259C122.393 313.206 122.305 313.179 122.225 313.135V294.185H130.694C131.337 294.147 131.941 293.864 132.382 293.396C132.824 292.927 133.07 292.308 133.07 291.664C133.07 291.02 132.824 290.4 132.382 289.931C131.941 289.463 131.337 289.18 130.694 289.142H122.269V202.761H117.183V289.142H108.767C108.424 289.122 108.079 289.172 107.756 289.29C107.432 289.407 107.136 289.59 106.886 289.826C106.635 290.062 106.436 290.347 106.299 290.663C106.163 290.979 106.092 291.319 106.092 291.664C106.092 292.008 106.163 292.348 106.299 292.664C106.436 292.981 106.635 293.265 106.886 293.501C107.136 293.738 107.432 293.92 107.756 294.037C108.079 294.155 108.424 294.205 108.767 294.185H117.183V313.109C117.103 313.109 117.024 313.179 116.944 313.232C114.092 314.893 109.482 316.456 105.297 317.648C105.014 317.733 104.771 317.917 104.612 318.166C104.453 318.415 104.389 318.713 104.431 319.005C104.472 319.298 104.617 319.566 104.839 319.761C105.061 319.955 105.346 320.064 105.641 320.067H133.767C134.049 320.048 134.316 319.933 134.524 319.74C134.731 319.548 134.866 319.29 134.906 319.01C134.947 318.73 134.89 318.445 134.745 318.202C134.6 317.958 134.377 317.772 134.111 317.674Z" fill="#E0E0E0"/>
<path d="M135.409 193.966H104.008C101.481 193.966 99.4332 196.014 99.4332 198.54V207.874C99.4332 210.4 101.481 212.448 104.008 212.448H135.409C137.936 212.448 139.984 210.4 139.984 207.874V198.54C139.984 196.014 137.936 193.966 135.409 193.966Z" fill="#1A4372"/>
<path d="M103.716 212.457V214.064C103.716 215.389 105.155 216.466 106.922 216.466H132.531C134.297 216.466 135.736 215.389 135.736 214.064V212.457H103.716Z" fill="#1A4372"/>
<path opacity="0.3" d="M103.716 212.457V214.064C103.716 215.389 105.155 216.466 106.922 216.466H132.531C134.297 216.466 135.736 215.389 135.736 214.064V212.457H103.716Z" fill="white"/>
</svg>
