<svg width="442" height="434" viewBox="0 0 442 434" fill="none" xmlns="http://www.w3.org/2000/svg">
<path d="M376.369 433.431C376.369 433.575 304.601 433.699 216.1 433.699C127.599 433.699 55.8001 433.575 55.8001 433.431C55.8001 433.286 127.558 433.162 216.1 433.162C304.642 433.162 376.369 433.296 376.369 433.431Z" fill="#263238"/>
<path d="M306.441 306.906C290.473 295.755 286.855 275.053 287.486 256.439C287.589 253.339 287.248 250.052 288.726 247.334C290.204 244.616 293.656 242.745 296.436 244.047C298.741 245.133 299.743 247.82 301.035 250.042C302.759 253.001 305.285 255.413 308.322 256.997C310.296 258.031 312.745 258.651 314.699 257.576C317.386 256.098 317.696 252.409 317.675 249.308C317.675 243.541 317.641 237.781 317.572 232.027C317.386 228.938 317.7 225.839 318.502 222.85C319.463 219.915 321.602 217.196 324.527 216.37C327.452 215.543 331.101 217.248 331.762 220.266C331.876 221.544 331.907 222.828 331.855 224.111C331.938 225.403 332.537 226.818 333.746 227.211C334.956 227.604 336.217 226.705 337.147 225.795C340.33 222.695 342.5 218.654 344.516 214.664C346.531 210.675 348.505 206.572 351.399 203.171C354.293 199.771 358.293 197.074 362.768 196.815C367.243 196.557 371.904 199.306 373.02 203.647C374.137 207.988 371.604 212.421 368.886 215.946C364.785 221.177 359.95 225.789 354.531 229.64C353.473 230.218 352.629 231.12 352.123 232.213C351.451 234.281 353.404 236.348 355.44 236.999C357.745 237.764 360.246 237.526 362.675 237.815C365.104 238.105 367.687 239.159 368.607 241.433C369.868 244.595 367.222 247.902 364.628 250.073C359.419 254.414 353.504 257.829 347.141 260.17C344.867 260.997 342.48 261.731 340.64 263.323C338.8 264.914 337.705 267.694 338.811 269.875C339.917 272.056 342.759 272.748 345.146 272.304C347.534 271.86 349.652 270.578 351.926 269.72C356.174 268.118 361.652 268.408 364.328 272.077C365.158 273.34 365.683 274.779 365.862 276.28C366.041 277.781 365.87 279.304 365.362 280.727C364.328 283.56 362.736 286.158 360.68 288.365C353.911 296.453 345.116 302.598 335.193 306.173C325.344 309.583 316.218 310.513 306.43 306.927" fill="#1A4372"/>
<path d="M368.473 199.368C368.473 199.368 368.38 199.471 368.173 199.657L367.253 200.474C366.447 201.197 365.259 202.252 363.76 203.647C359.511 207.592 355.566 211.852 351.957 216.39C349.652 219.253 347.265 222.498 344.722 226.023C342.18 229.547 339.555 233.35 336.95 237.391C334.174 241.653 331.631 246.062 329.333 250.6C328.134 252.967 327.08 255.437 325.995 257.959L322.791 265.658C318.568 275.357 314.89 285.284 311.774 295.393C309.264 303.664 307.534 312.152 306.606 320.745C306.005 326.545 305.908 332.385 306.317 338.202C306.482 340.269 306.637 341.85 306.782 342.925C306.844 343.442 306.885 343.855 306.926 344.155V344.578C306.882 344.444 306.851 344.306 306.833 344.165C306.782 343.865 306.72 343.462 306.637 342.945C306.451 341.912 306.255 340.279 306.069 338.212C305.57 332.385 305.605 326.525 306.172 320.704C307.042 312.074 308.734 303.546 311.226 295.238C314.316 285.101 317.984 275.149 322.212 265.431L325.499 257.762C326.584 255.251 327.649 252.76 328.858 250.383C331.171 245.831 333.735 241.412 336.537 237.143C339.183 233.009 341.849 229.268 344.361 225.775C346.872 222.281 349.301 219.015 351.595 216.163C355.241 211.636 359.239 207.406 363.553 203.512C365.083 202.138 366.302 201.104 367.129 200.412L368.09 199.637C368.208 199.534 368.336 199.444 368.473 199.368Z" fill="#263238"/>
<path d="M328.992 250.362C328.846 249.936 328.746 249.496 328.692 249.05C328.527 248.192 328.341 246.983 328.124 245.412C327.68 242.311 327.225 238.063 326.739 233.361C326.253 228.658 325.706 224.4 325.251 221.33C325.013 219.801 324.806 218.571 324.662 217.713C324.549 217.274 324.49 216.823 324.486 216.37C324.664 216.784 324.792 217.217 324.868 217.661C325.096 218.509 325.354 219.728 325.644 221.268C326.233 224.369 326.811 228.586 327.297 233.299C327.783 238.012 328.196 242.146 328.517 245.36C328.672 246.807 328.806 248.037 328.91 249.019C328.99 249.462 329.018 249.913 328.992 250.362Z" fill="#263238"/>
<path d="M368.762 242.941C368.259 243.051 367.747 243.113 367.233 243.128C366.199 243.221 364.732 243.345 362.913 243.551C359.275 243.944 354.272 244.667 348.784 245.701C343.296 246.735 338.366 247.902 334.821 248.802C333.054 249.256 331.628 249.67 330.687 249.949C330.185 250.127 329.665 250.252 329.137 250.321C329.615 250.081 330.113 249.884 330.625 249.732C331.597 249.391 333.002 248.915 334.759 248.409C338.284 247.375 343.214 246.145 348.722 245.091C353.389 244.199 358.097 243.544 362.83 243.128C364.659 242.972 366.137 242.91 367.171 242.89C367.702 242.854 368.235 242.871 368.762 242.941Z" fill="#263238"/>
<path d="M311.732 294.514C311.622 294.365 311.532 294.202 311.464 294.029L310.781 292.592C310.192 291.342 309.397 289.492 308.446 287.228C306.523 282.681 304.074 276.314 301.469 269.245C298.865 262.175 296.467 255.809 294.648 251.21C293.759 248.977 293.025 247.148 292.478 245.784L291.899 244.306C291.819 244.135 291.763 243.954 291.734 243.768C291.844 243.918 291.934 244.081 292.002 244.254L292.684 245.691C293.263 246.941 294.069 248.791 295.02 251.055C296.943 255.602 299.392 261.969 301.996 269.038C304.601 276.107 306.999 282.474 308.818 287.073C309.707 289.305 310.44 291.135 310.978 292.499C311.216 293.088 311.412 293.533 311.567 293.977C311.647 294.147 311.703 294.328 311.732 294.514Z" fill="#263238"/>
<path d="M364.525 277.492C364.359 277.587 364.182 277.66 363.998 277.709L362.468 278.226L356.815 280.055C352.04 281.606 345.446 283.817 338.211 286.257C330.977 288.696 324.352 290.866 319.546 292.313C317.148 293.047 315.195 293.605 313.841 293.977L312.28 294.38C312.099 294.438 311.912 294.476 311.722 294.494C311.887 294.399 312.065 294.326 312.249 294.277L313.779 293.76L319.432 291.931C324.207 290.38 330.801 288.169 338.036 285.729C345.27 283.29 351.885 281.12 356.691 279.673C359.099 278.939 361.042 278.381 362.406 278.009L363.967 277.606C364.148 277.548 364.335 277.51 364.525 277.492Z" fill="#263238"/>
<path d="M342.986 26.7898L337.663 28.6915L335.379 21.7358C331.183 8.90978 317.809 2.09884 305.521 6.42931C293.232 10.7598 286.69 24.8261 290.886 37.6521L293.17 44.6078L287.827 46.5198C285.789 47.3101 284.135 48.8552 283.207 50.8339C282.279 52.8126 282.15 55.0727 282.845 57.1445L297.656 102.403C297.963 103.428 298.473 104.382 299.157 105.206C299.84 106.03 300.682 106.709 301.632 107.202C302.583 107.694 303.623 107.991 304.69 108.074C305.758 108.157 306.831 108.024 307.846 107.684L363.005 87.9539C365.07 87.165 366.748 85.6062 367.687 83.6054C368.625 81.6046 368.752 79.3178 368.039 77.2259L353.218 31.9678C352.903 30.945 352.384 29.9963 351.694 29.1783C351.004 28.3602 350.156 27.6895 349.201 27.2062C348.247 26.723 347.204 26.4371 346.136 26.3655C345.068 26.294 343.997 26.4382 342.986 26.7898ZM300.942 34.0245C299.811 30.6895 300.014 27.0461 301.509 23.8575C303.004 20.669 305.675 18.1827 308.962 16.9196C310.586 16.3642 312.304 16.1415 314.015 16.2648C315.727 16.388 317.395 16.8547 318.922 17.6369C320.449 18.4192 321.803 19.501 322.903 20.8179C324.002 22.1347 324.826 23.6596 325.323 25.3015L327.597 32.2571L303.216 40.9801L300.942 34.0245ZM331.948 74.1873L335.731 85.7421C335.8 85.9738 335.778 86.2234 335.668 86.4389C335.558 86.6545 335.37 86.8195 335.142 86.8997L329.84 88.791C329.629 88.8495 329.403 88.8241 329.21 88.7201C329.018 88.616 328.873 88.4415 328.806 88.2329L324.992 76.7298C322.89 76.6152 320.872 75.8609 319.209 74.568C317.547 73.275 316.319 71.5051 315.691 69.4951C314.792 66.8378 314.956 63.9358 316.148 61.3967C317.341 58.8577 319.469 56.8783 322.088 55.8732C323.381 55.4314 324.75 55.2545 326.113 55.3529C327.476 55.4513 328.805 55.8232 330.021 56.4462C331.237 57.0692 332.316 57.9307 333.192 58.9794C334.068 60.028 334.724 61.2422 335.121 62.5498C335.786 64.5916 335.841 66.783 335.279 68.8555C334.717 70.9281 333.563 72.7918 331.958 74.2183L331.948 74.1873Z" fill="#1A4372"/>
<path d="M337.426 28.5675C337.426 28.7122 327.556 32.4225 315.277 36.8357C302.999 41.2488 292.984 44.7938 292.932 44.6905C292.881 44.5871 302.803 40.8458 315.091 36.4223C327.38 31.9988 337.374 28.4331 337.426 28.5675Z" fill="#263238"/>
<path d="M349.146 30.4691C349.191 30.5588 349.229 30.6522 349.26 30.7482C349.342 30.9549 349.435 31.2236 349.559 31.5543C349.828 32.3088 350.2 33.3527 350.665 34.6549L354.634 46.2098C356.288 51.1087 358.262 56.9171 360.453 63.3663C361.486 66.6012 362.706 69.9705 363.843 73.5155C364.451 75.3423 364.714 77.2665 364.618 79.1896C364.53 80.1897 364.246 81.1627 363.781 82.0525C363.284 82.9393 362.621 83.7218 361.827 84.3572C360.23 85.5228 358.458 86.4264 356.577 87.034L351.254 88.9461L341.177 92.5531L324.114 98.6302L312.59 102.682L309.489 103.715L308.663 103.984C308.574 104.023 308.48 104.048 308.384 104.056C308.384 104.056 308.466 104.056 308.642 103.932L309.448 103.612L312.549 102.444L324.011 98.2271L341.043 92.026L351.099 88.388L356.422 86.4656C358.25 85.8827 359.971 85.0065 361.517 83.8715C362.255 83.2819 362.873 82.5555 363.336 81.7321C363.774 80.9091 364.038 80.005 364.111 79.0759C364.207 77.223 363.954 75.3686 363.367 73.6085C362.251 70.0946 361.073 66.6942 360.008 63.4593C357.859 56.9998 355.874 51.1707 354.303 46.2718C352.732 41.3728 351.409 37.4351 350.5 34.6653C350.066 33.3113 349.735 32.2571 349.466 31.4923L349.218 30.6655C349.187 30.6029 349.163 30.537 349.146 30.4691Z" fill="#263238"/>
<path d="M320.042 16.2168C320.042 16.2168 319.494 15.9481 318.481 15.5347C317.037 14.98 315.511 14.6725 313.965 14.6252C311.673 14.5466 309.393 14.9773 307.288 15.8861C304.728 17.0178 302.54 18.8483 300.973 21.1674C299.396 23.48 298.55 26.2128 298.545 29.0119C298.566 31.306 298.914 33.5854 299.578 35.7815C300.115 37.6625 300.674 39.1611 301.046 40.205C301.265 40.7352 301.445 41.281 301.583 41.838C301.289 41.3422 301.044 40.8197 300.849 40.2773C300.425 39.2438 299.816 37.7762 299.216 35.8848C298.48 33.6657 298.08 31.3492 298.028 29.0119C298 26.1071 298.866 23.264 300.508 20.8677C302.129 18.4638 304.407 16.5768 307.071 15.4314C309.242 14.5175 311.593 14.1144 313.944 14.2531C315.523 14.3336 317.075 14.7014 318.523 15.3383C318.91 15.5169 319.283 15.7242 319.639 15.9585C319.786 16.023 319.922 16.1102 320.042 16.2168Z" fill="#263238"/>
<path d="M320.517 56.6587C320.682 56.5587 320.855 56.4723 321.034 56.4003C321.551 56.1669 322.087 55.9767 322.636 55.8319C323.507 55.5748 324.406 55.4221 325.313 55.3771C326.547 55.3108 327.781 55.4972 328.94 55.9249C331.586 56.8551 334.015 59.5526 335.214 63.1596C335.789 65.0953 335.789 67.1563 335.214 69.092C334.576 71.1929 333.434 73.1056 331.886 74.6627L331.948 74.3837C333.323 78.1561 334.821 82.2488 336.372 86.5173L336.465 86.7757L336.206 86.8687L333.839 87.6542L328.672 89.3801L328.413 89.4628L328.331 89.2044C326.915 84.9256 325.364 80.9362 324.197 77.0192L324.424 77.1949C322.403 77.027 320.477 76.2687 318.884 75.0141C317.443 73.9043 316.262 72.4934 315.422 70.88C314.664 69.4492 314.287 67.8477 314.326 66.2291C314.374 64.5749 314.787 62.9518 315.536 61.4759C316.285 60 317.35 58.7079 318.657 57.6922C319.195 57.2557 319.798 56.9068 320.445 56.6587C319.861 57.0051 319.295 57.3811 318.75 57.7852C317.315 58.9995 316.215 60.5617 315.556 62.3224C314.991 63.6501 314.726 65.0866 314.782 66.5286C314.837 67.9707 315.211 69.3825 315.877 70.663C316.702 72.2151 317.856 73.5693 319.256 74.6317C320.776 75.8242 322.612 76.5431 324.538 76.6988H324.713L324.765 76.8538C325.902 80.6985 327.463 84.7189 328.899 89.0184L328.558 88.8531L333.726 87.1271L336.082 86.3312L335.917 86.6826C334.377 82.4142 332.889 78.3111 331.524 74.5387V74.3837L331.648 74.2597C333.151 72.7671 334.271 70.9342 334.914 68.9163C335.462 67.0647 335.462 65.0939 334.914 63.2423C333.788 59.7696 331.462 57.1341 328.94 56.2039C327.824 55.7735 326.632 55.5731 325.437 55.6148C324.544 55.6353 323.656 55.7566 322.791 55.9766C321.251 56.359 320.528 56.7104 320.517 56.6587Z" fill="#263238"/>
<path d="M288.571 355.079L185.332 354.604C179.37 354.571 173.665 352.173 169.469 347.937C165.274 343.701 162.931 337.973 162.956 332.011L164.052 73.2054C164.064 70.2517 164.658 67.3293 165.8 64.6053C166.943 61.8813 168.61 59.4091 170.709 57.3301C172.807 55.2511 175.294 53.606 178.029 52.4888C180.763 51.3716 183.691 50.8043 186.645 50.8193L289.873 51.2947C295.835 51.3248 301.541 53.7199 305.739 57.9541C309.936 62.1882 312.281 67.9152 312.259 73.8772L311.164 332.672C311.152 335.627 310.558 338.55 309.416 341.276C308.274 344.001 306.606 346.474 304.508 348.555C302.41 350.636 299.923 352.283 297.188 353.402C294.454 354.521 291.526 355.091 288.571 355.079Z" fill="#455A64"/>
<path d="M289.718 60.1933H269.709C269.056 60.2055 268.412 60.3461 267.814 60.6071C267.215 60.8682 266.674 61.2446 266.221 61.7149C265.768 62.1852 265.412 62.7401 265.173 63.348C264.935 63.9559 264.819 64.6048 264.831 65.2576V68.8853C264.843 69.5377 264.727 70.1861 264.488 70.7933C264.249 71.4006 263.893 71.9549 263.44 72.4243C262.987 72.8938 262.446 73.2692 261.847 73.5292C261.249 73.7891 260.605 73.9285 259.953 73.9393L220.947 73.7636C219.628 73.7284 218.376 73.1709 217.467 72.2136C216.558 71.2564 216.067 69.9775 216.1 68.6579V65.0303C216.133 63.7124 215.643 62.4351 214.736 61.4781C213.83 60.5211 212.581 59.9625 211.263 59.9246H204.225L186.707 59.842C182.54 59.8171 178.533 61.4444 175.563 64.3675C172.594 67.2906 170.904 71.2712 170.863 75.4379L169.829 328.052C169.82 330.12 170.217 332.168 171 334.082C171.782 335.995 172.933 337.736 174.388 339.204C175.843 340.672 177.573 341.84 179.479 342.64C181.385 343.439 183.43 343.856 185.497 343.865L288.519 344.341C290.588 344.35 292.638 343.952 294.552 343.17C296.467 342.387 298.209 341.235 299.678 339.779C301.147 338.323 302.316 336.592 303.116 334.684C303.916 332.777 304.333 330.731 304.343 328.662L305.376 76.0476C305.401 71.8692 303.765 67.852 300.829 64.879C297.893 61.9061 293.897 60.2207 289.718 60.1933Z" fill="white"/>
<path d="M275.859 310.637L199.254 310.307C198.458 310.307 197.817 309.439 197.827 308.384L197.91 288.344C197.91 287.311 198.561 286.422 199.357 286.422L275.962 286.773C276.403 286.85 276.797 287.093 277.063 287.453C277.329 287.813 277.445 288.262 277.388 288.706L277.316 308.725C277.316 309.79 276.654 310.648 275.859 310.637Z" fill="#1A4372"/>
<path d="M222.544 300.425C222.122 300.425 221.715 300.357 221.325 300.222C220.94 300.081 220.642 299.902 220.43 299.685L220.666 299.221C220.867 299.417 221.135 299.582 221.471 299.717C221.813 299.848 222.17 299.913 222.544 299.913C222.902 299.913 223.192 299.869 223.414 299.783C223.642 299.69 223.807 299.568 223.91 299.417C224.019 299.265 224.073 299.097 224.073 298.912C224.073 298.69 224.008 298.511 223.878 298.376C223.753 298.24 223.588 298.135 223.382 298.059C223.176 297.977 222.948 297.907 222.699 297.847C222.45 297.788 222.2 297.725 221.951 297.66C221.701 297.59 221.471 297.498 221.26 297.384C221.054 297.27 220.886 297.121 220.756 296.937C220.631 296.747 220.568 296.5 220.568 296.197C220.568 295.915 220.642 295.657 220.788 295.424C220.94 295.186 221.17 294.996 221.479 294.855C221.788 294.709 222.184 294.635 222.666 294.635C222.986 294.635 223.303 294.682 223.618 294.774C223.932 294.86 224.203 294.982 224.431 295.14L224.228 295.619C223.984 295.457 223.723 295.337 223.447 295.262C223.176 295.186 222.913 295.148 222.658 295.148C222.317 295.148 222.035 295.194 221.813 295.286C221.59 295.378 221.425 295.503 221.317 295.66C221.214 295.812 221.162 295.985 221.162 296.18C221.162 296.403 221.224 296.582 221.349 296.717C221.479 296.853 221.647 296.958 221.853 297.034C222.065 297.11 222.295 297.178 222.544 297.237C222.794 297.297 223.04 297.362 223.284 297.433C223.534 297.503 223.761 297.595 223.967 297.709C224.179 297.817 224.347 297.964 224.472 298.148C224.602 298.332 224.667 298.574 224.667 298.872C224.667 299.148 224.591 299.406 224.439 299.644C224.287 299.877 224.054 300.067 223.74 300.214C223.431 300.354 223.032 300.425 222.544 300.425ZM225.978 300.376V294.684H226.579V300.376H225.978ZM228.431 300.376V294.684H228.927L232.855 299.628H232.595V294.684H233.188V300.376H232.692L228.773 295.432H229.033V300.376H228.431ZM237.542 300.425C237.109 300.425 236.707 300.354 236.339 300.214C235.976 300.067 235.659 299.864 235.388 299.604C235.122 299.343 234.913 299.037 234.761 298.685C234.615 298.332 234.542 297.948 234.542 297.53C234.542 297.113 234.615 296.728 234.761 296.376C234.913 296.023 235.125 295.717 235.396 295.457C235.667 295.196 235.984 294.996 236.347 294.855C236.716 294.709 237.117 294.635 237.55 294.635C237.984 294.635 238.38 294.703 238.738 294.839C239.101 294.974 239.41 295.18 239.665 295.457L239.291 295.839C239.052 295.6 238.789 295.43 238.502 295.327C238.214 295.224 237.906 295.172 237.575 295.172C237.222 295.172 236.897 295.232 236.599 295.351C236.306 295.465 236.049 295.63 235.827 295.847C235.61 296.058 235.439 296.308 235.314 296.595C235.195 296.877 235.135 297.189 235.135 297.53C235.135 297.866 235.195 298.178 235.314 298.465C235.439 298.753 235.61 299.005 235.827 299.221C236.049 299.433 236.306 299.598 236.599 299.717C236.897 299.831 237.22 299.888 237.567 299.888C237.892 299.888 238.198 299.839 238.486 299.742C238.778 299.644 239.047 299.479 239.291 299.246L239.632 299.701C239.361 299.94 239.044 300.121 238.681 300.246C238.317 300.365 237.938 300.425 237.542 300.425ZM239.055 299.628V297.53H239.632V299.701L239.055 299.628ZM245.756 300.425C245.03 300.425 244.458 300.216 244.04 299.799C243.623 299.381 243.414 298.763 243.414 297.945V294.684H244.016V297.92C244.016 298.593 244.168 299.089 244.471 299.409C244.775 299.728 245.203 299.888 245.756 299.888C246.315 299.888 246.745 299.728 247.049 299.409C247.353 299.089 247.504 298.593 247.504 297.92V294.684H248.09V297.945C248.09 298.763 247.881 299.381 247.464 299.799C247.052 300.216 246.483 300.425 245.756 300.425ZM249.903 300.376V294.684H252.033C252.516 294.684 252.931 294.763 253.278 294.92C253.624 295.072 253.89 295.294 254.074 295.587C254.264 295.874 254.359 296.224 254.359 296.636C254.359 297.037 254.264 297.384 254.074 297.677C253.89 297.964 253.624 298.186 253.278 298.343C252.931 298.501 252.516 298.579 252.033 298.579H250.236L250.505 298.295V300.376H249.903ZM250.505 298.343L250.236 298.051H252.017C252.586 298.051 253.017 297.929 253.31 297.685C253.608 297.435 253.757 297.086 253.757 296.636C253.757 296.18 253.608 295.828 253.31 295.579C253.017 295.329 252.586 295.205 252.017 295.205H250.236L250.505 294.92V298.343Z" fill="#E8E8E3"/>
<path d="M214.533 134.452L187.951 134.332L187.929 139.21L214.511 139.331L214.533 134.452Z" fill="#1A4372"/>
<path opacity="0.1" d="M214.533 134.452L187.951 134.332L187.929 139.21L214.511 139.331L214.533 134.452Z" fill="black"/>
<path d="M292.457 164.404C292.666 164.383 292.871 164.334 293.067 164.259C293.353 164.147 293.602 163.957 293.784 163.71C293.967 163.463 294.077 163.17 294.1 162.864C294.1 161.221 294.1 158.823 294.1 155.743C294.1 154.203 294.1 152.477 294.1 150.575C294.1 150.11 294.1 149.624 294.1 149.139C294.168 148.667 294.065 148.187 293.811 147.785C293.669 147.592 293.484 147.434 293.27 147.325C293.057 147.215 292.821 147.157 292.581 147.154H290.969H276.034L189.59 146.834C189.369 146.83 189.15 146.88 188.952 146.979C188.754 147.078 188.583 147.223 188.453 147.402C188.204 147.807 188.108 148.287 188.184 148.756C188.184 149.79 188.184 150.823 188.184 151.857C188.184 153.924 188.184 155.991 188.184 158.058C188.184 159.091 188.184 160.125 188.184 161.159C188.142 161.64 188.142 162.124 188.184 162.605C188.239 162.812 188.34 163.003 188.479 163.164C188.619 163.326 188.794 163.453 188.991 163.536C189.194 163.617 189.412 163.655 189.631 163.649H194.892L217.847 163.773L256.707 164.011L282.907 164.218L290.028 164.3H291.878C292.302 164.3 292.509 164.3 292.509 164.3H291.878H290.028H282.907H256.707L217.847 164.176L194.892 164.083H189.631C189.342 164.095 189.053 164.046 188.784 163.939C188.512 163.823 188.27 163.646 188.076 163.422C187.883 163.198 187.743 162.933 187.668 162.647C187.608 162.376 187.587 162.097 187.606 161.82V161.055C187.606 160.022 187.606 158.988 187.606 157.955C187.606 155.888 187.606 153.82 187.606 151.753C187.606 150.72 187.606 149.686 187.606 148.653C187.586 148.378 187.586 148.101 187.606 147.826C187.644 147.522 187.762 147.233 187.947 146.989C188.125 146.739 188.361 146.537 188.635 146.398C188.908 146.26 189.211 146.189 189.518 146.193L275.962 146.668L290.896 146.772H292.509C292.793 146.772 293.073 146.841 293.324 146.972C293.576 147.103 293.793 147.294 293.956 147.526C294.247 147.976 294.365 148.516 294.286 149.046C294.286 149.531 294.286 150.017 294.286 150.482C294.286 152.363 294.286 154.089 294.286 155.65C294.286 158.75 294.214 161.128 294.193 162.781C294.168 163.099 294.052 163.403 293.86 163.658C293.668 163.912 293.407 164.107 293.108 164.218C292.913 164.339 292.687 164.403 292.457 164.404Z" fill="#E0E0E0"/>
<path d="M244.553 152.022H195.936V156.58H244.553V152.022Z" fill="#1A4372"/>
<path opacity="0.2" d="M244.553 152.022H195.936V156.58H244.553V152.022Z" fill="white"/>
<path d="M214.352 178.955L187.77 178.834L187.748 183.712L214.33 183.833L214.352 178.955Z" fill="#1A4372"/>
<path opacity="0.1" d="M214.352 178.955L187.77 178.834L187.748 183.712L214.33 183.833L214.352 178.955Z" fill="black"/>
<path d="M291.785 208.907C291.994 208.882 292.201 208.844 292.405 208.794C292.694 208.702 292.96 208.549 293.184 208.346C293.409 208.143 293.587 207.894 293.708 207.616C293.87 207.198 293.934 206.749 293.894 206.303C293.894 205.807 293.894 205.269 293.894 204.67C293.894 203.471 293.894 202.107 293.894 200.536V193.973C293.943 193.498 293.838 193.019 293.594 192.609C293.339 192.188 292.938 191.875 292.467 191.73C291.953 191.638 291.428 191.611 290.907 191.648H276.034L189.89 191.327C189.427 191.328 188.979 191.498 188.631 191.804C188.284 192.11 188.059 192.532 187.999 192.991C187.999 193.973 187.999 195.058 187.999 196.092C187.999 198.159 187.999 200.226 187.999 202.293C187.999 203.326 187.999 204.36 187.999 205.393C187.96 205.877 187.981 206.362 188.061 206.84C188.19 207.259 188.455 207.623 188.815 207.874C189.197 208.116 189.645 208.232 190.097 208.205H191.533H194.52L217.392 208.318L256.118 208.556L282.225 208.763L289.325 208.845H282.225H256.118L217.371 208.804L194.499 208.721H190.004C189.445 208.755 188.89 208.606 188.422 208.298C187.952 207.972 187.609 207.494 187.451 206.944C187.358 206.419 187.33 205.884 187.368 205.352C187.368 204.319 187.368 203.285 187.368 202.252C187.368 200.185 187.368 198.117 187.368 196.05C187.368 195.017 187.368 193.983 187.368 192.95C187.443 192.359 187.732 191.816 188.179 191.422C188.626 191.028 189.201 190.811 189.797 190.81L275.941 191.286L290.814 191.4C291.368 191.366 291.923 191.404 292.467 191.513C293.004 191.689 293.457 192.057 293.739 192.547C294.006 193.002 294.122 193.53 294.069 194.056C294.069 194.541 294.069 195.017 294.069 195.492C294.069 197.363 294.069 199.079 294.069 200.66C294.069 202.241 294.069 203.574 294.069 204.794C294.069 205.383 294.069 205.931 294.069 206.437C294.107 206.9 294.032 207.364 293.852 207.791C293.718 208.076 293.524 208.329 293.283 208.533C293.042 208.736 292.761 208.885 292.457 208.969C292.231 208.988 292.004 208.967 291.785 208.907Z" fill="#E0E0E0"/>
<path d="M214.152 225.39L187.57 225.269L187.548 230.147L214.13 230.268L214.152 225.39Z" fill="#1A4372"/>
<path opacity="0.1" d="M214.152 225.39L187.57 225.269L187.548 230.147L214.13 230.268L214.152 225.39Z" fill="black"/>
<path d="M291.578 255.323C291.787 255.298 291.995 255.261 292.199 255.209C292.486 255.118 292.751 254.967 292.975 254.765C293.2 254.564 293.379 254.317 293.501 254.042C293.663 253.624 293.727 253.175 293.687 252.729C293.687 252.223 293.687 251.695 293.687 251.086C293.687 249.897 293.687 248.523 293.687 246.952V240.389C293.736 239.914 293.631 239.435 293.387 239.024C293.126 238.611 292.727 238.303 292.261 238.156C291.746 238.061 291.222 238.029 290.7 238.063H275.828L189.683 237.743C189.22 237.744 188.773 237.913 188.425 238.219C188.077 238.525 187.852 238.947 187.792 239.407C187.792 240.44 187.792 241.474 187.792 242.507C187.792 244.574 187.792 246.642 187.792 248.709C187.792 249.742 187.792 250.776 187.792 251.809C187.753 252.289 187.774 252.771 187.854 253.246C187.978 253.667 188.244 254.033 188.608 254.279C188.988 254.527 189.438 254.643 189.89 254.61H194.386L217.258 254.734L255.984 254.972L282.091 255.178L289.191 255.261H282.091H255.984L217.258 255.147L194.386 255.054H189.89C189.33 255.092 188.774 254.943 188.309 254.631C187.838 254.305 187.495 253.827 187.337 253.277C187.244 252.752 187.217 252.217 187.254 251.685C187.254 250.652 187.254 249.618 187.254 248.585C187.254 246.517 187.254 244.45 187.254 242.383C187.254 241.35 187.254 240.316 187.254 239.231C187.327 238.641 187.614 238.098 188.059 237.704C188.504 237.31 189.078 237.092 189.673 237.092L275.817 237.567L290.69 237.681C291.243 237.647 291.799 237.685 292.343 237.795C292.88 237.97 293.333 238.338 293.615 238.828C293.882 239.283 293.998 239.812 293.945 240.337C293.945 240.823 293.945 241.309 293.945 241.774C293.945 243.644 293.945 245.36 293.945 246.941C293.945 248.523 293.945 249.856 293.945 251.075C293.945 251.664 293.945 252.212 293.945 252.719C293.985 253.181 293.91 253.646 293.728 254.073C293.594 254.358 293.4 254.611 293.159 254.814C292.918 255.017 292.637 255.166 292.333 255.251C292.091 255.334 291.832 255.359 291.578 255.323Z" fill="#E0E0E0"/>
<path d="M243.515 197.814L194.899 197.594L194.878 202.152L243.495 202.372L243.515 197.814Z" fill="#1A4372"/>
<path opacity="0.2" d="M243.515 197.814L194.899 197.594L194.878 202.152L243.495 202.372L243.515 197.814Z" fill="white"/>
<path d="M199.295 246.89C199.264 247.305 199.113 247.703 198.858 248.033C198.604 248.363 198.258 248.612 197.864 248.747C197.47 248.883 197.044 248.9 196.641 248.796C196.237 248.692 195.873 248.471 195.593 248.162C195.313 247.853 195.13 247.469 195.067 247.057C195.004 246.645 195.063 246.223 195.237 245.845C195.411 245.466 195.693 245.147 196.046 244.926C196.4 244.706 196.811 244.594 197.228 244.605C197.804 244.638 198.344 244.895 198.731 245.323C199.117 245.751 199.32 246.313 199.295 246.89Z" fill="#1A4372"/>
<path d="M205.878 246.921C205.899 247.212 205.859 247.504 205.761 247.78C205.664 248.055 205.511 248.307 205.312 248.521C205.112 248.735 204.871 248.905 204.603 249.021C204.336 249.138 204.047 249.198 203.755 249.198C203.462 249.198 203.174 249.138 202.906 249.021C202.638 248.905 202.397 248.735 202.198 248.521C201.998 248.307 201.845 248.055 201.748 247.78C201.65 247.504 201.61 247.212 201.631 246.921C201.61 246.629 201.65 246.337 201.748 246.061C201.845 245.786 201.998 245.534 202.198 245.32C202.397 245.107 202.638 244.936 202.906 244.82C203.174 244.703 203.462 244.643 203.755 244.643C204.047 244.643 204.336 244.703 204.603 244.82C204.871 244.936 205.112 245.107 205.312 245.32C205.511 245.534 205.664 245.786 205.761 246.061C205.859 246.337 205.899 246.629 205.878 246.921Z" fill="#1A4372"/>
<path d="M212.472 246.952C212.442 247.367 212.29 247.765 212.036 248.095C211.781 248.425 211.435 248.674 211.041 248.809C210.647 248.945 210.222 248.962 209.818 248.858C209.414 248.754 209.05 248.533 208.77 248.224C208.491 247.915 208.308 247.531 208.245 247.119C208.181 246.707 208.24 246.285 208.415 245.907C208.589 245.528 208.87 245.209 209.224 244.988C209.578 244.768 209.989 244.656 210.405 244.667C210.98 244.702 211.519 244.961 211.905 245.388C212.291 245.815 212.495 246.376 212.472 246.952Z" fill="#1A4372"/>
<path d="M219.056 246.983C219.025 247.398 218.874 247.796 218.619 248.126C218.365 248.456 218.019 248.705 217.625 248.84C217.231 248.976 216.805 248.993 216.402 248.889C215.998 248.785 215.634 248.564 215.354 248.255C215.074 247.946 214.891 247.562 214.828 247.15C214.765 246.738 214.824 246.316 214.998 245.938C215.172 245.559 215.454 245.24 215.808 245.019C216.161 244.799 216.572 244.687 216.989 244.698C217.564 244.733 218.102 244.992 218.488 245.419C218.875 245.846 219.079 246.407 219.056 246.983Z" fill="#1A4372"/>
<path d="M225.64 247.003C225.611 247.42 225.461 247.818 225.207 248.15C224.954 248.482 224.609 248.732 224.215 248.869C223.821 249.006 223.395 249.024 222.99 248.921C222.586 248.818 222.221 248.599 221.94 248.29C221.659 247.981 221.476 247.597 221.412 247.184C221.348 246.772 221.406 246.35 221.58 245.97C221.754 245.591 222.036 245.271 222.39 245.051C222.744 244.83 223.155 244.718 223.572 244.729C224.145 244.764 224.682 245.021 225.068 245.446C225.454 245.871 225.659 246.43 225.64 247.003Z" fill="#1A4372"/>
<path d="M232.233 247.034C232.205 247.448 232.057 247.845 231.806 248.176C231.555 248.507 231.213 248.757 230.821 248.896C230.43 249.035 230.007 249.056 229.604 248.958C229.2 248.859 228.835 248.645 228.552 248.341C228.269 248.037 228.081 247.657 228.011 247.248C227.941 246.839 227.992 246.418 228.158 246.038C228.324 245.657 228.598 245.334 228.946 245.107C229.293 244.88 229.7 244.759 230.115 244.761C230.697 244.782 231.247 245.033 231.644 245.46C232.041 245.886 232.253 246.452 232.233 247.034Z" fill="#1A4372"/>
<path d="M238.817 247.065C238.837 247.357 238.797 247.649 238.7 247.924C238.602 248.2 238.449 248.452 238.25 248.666C238.051 248.879 237.81 249.05 237.542 249.166C237.274 249.282 236.985 249.343 236.693 249.343C236.401 249.343 236.112 249.282 235.844 249.166C235.576 249.05 235.335 248.879 235.136 248.666C234.937 248.452 234.784 248.2 234.686 247.924C234.589 247.649 234.549 247.357 234.569 247.065C234.549 246.774 234.589 246.481 234.686 246.206C234.784 245.931 234.937 245.678 235.136 245.465C235.335 245.251 235.576 245.081 235.844 244.965C236.112 244.848 236.401 244.788 236.693 244.788C236.985 244.788 237.274 244.848 237.542 244.965C237.81 245.081 238.051 245.251 238.25 245.465C238.449 245.678 238.602 245.931 238.7 246.206C238.797 246.481 238.837 246.774 238.817 247.065Z" fill="#1A4372"/>
<path d="M245.401 247.096C245.372 247.51 245.224 247.907 244.973 248.238C244.722 248.569 244.38 248.819 243.989 248.958C243.597 249.097 243.174 249.118 242.771 249.02C242.367 248.921 242.002 248.707 241.719 248.403C241.436 248.099 241.248 247.719 241.178 247.31C241.108 246.901 241.159 246.48 241.325 246.1C241.491 245.719 241.765 245.396 242.113 245.169C242.46 244.942 242.867 244.821 243.282 244.823C243.864 244.844 244.414 245.095 244.811 245.522C245.208 245.948 245.42 246.514 245.401 247.096Z" fill="#1A4372"/>
<path d="M251.984 247.127C251.956 247.544 251.805 247.942 251.552 248.274C251.299 248.606 250.954 248.856 250.559 248.993C250.165 249.13 249.74 249.148 249.335 249.045C248.931 248.942 248.565 248.723 248.285 248.414C248.004 248.105 247.82 247.721 247.756 247.308C247.692 246.896 247.751 246.474 247.925 246.095C248.099 245.715 248.38 245.395 248.734 245.175C249.089 244.954 249.5 244.842 249.917 244.854C250.49 244.888 251.027 245.145 251.413 245.57C251.799 245.995 252.004 246.554 251.984 247.127Z" fill="#1A4372"/>
<g opacity="0.2">
<path d="M199.295 246.89C199.264 247.305 199.113 247.703 198.858 248.033C198.604 248.363 198.258 248.612 197.864 248.747C197.47 248.883 197.044 248.9 196.641 248.796C196.237 248.692 195.873 248.471 195.593 248.162C195.313 247.853 195.13 247.469 195.067 247.057C195.004 246.645 195.063 246.223 195.237 245.845C195.411 245.466 195.693 245.147 196.046 244.926C196.4 244.706 196.811 244.594 197.228 244.605C197.804 244.638 198.344 244.895 198.731 245.323C199.117 245.751 199.32 246.313 199.295 246.89Z" fill="white"/>
<path d="M205.878 246.921C205.899 247.212 205.859 247.504 205.761 247.78C205.664 248.055 205.511 248.307 205.312 248.521C205.112 248.735 204.871 248.905 204.603 249.021C204.336 249.138 204.047 249.198 203.755 249.198C203.462 249.198 203.174 249.138 202.906 249.021C202.638 248.905 202.397 248.735 202.198 248.521C201.998 248.307 201.845 248.055 201.748 247.78C201.65 247.504 201.61 247.212 201.631 246.921C201.61 246.629 201.65 246.337 201.748 246.061C201.845 245.786 201.998 245.534 202.198 245.32C202.397 245.107 202.638 244.936 202.906 244.82C203.174 244.703 203.462 244.643 203.755 244.643C204.047 244.643 204.336 244.703 204.603 244.82C204.871 244.936 205.112 245.107 205.312 245.32C205.511 245.534 205.664 245.786 205.761 246.061C205.859 246.337 205.899 246.629 205.878 246.921Z" fill="white"/>
<path d="M212.472 246.952C212.442 247.367 212.29 247.765 212.036 248.095C211.781 248.425 211.435 248.674 211.041 248.809C210.647 248.945 210.222 248.962 209.818 248.858C209.414 248.754 209.05 248.533 208.77 248.224C208.491 247.915 208.308 247.531 208.245 247.119C208.181 246.707 208.24 246.285 208.415 245.907C208.589 245.528 208.87 245.209 209.224 244.988C209.578 244.768 209.989 244.656 210.405 244.667C210.98 244.702 211.519 244.961 211.905 245.388C212.291 245.815 212.495 246.376 212.472 246.952Z" fill="white"/>
<path d="M219.056 246.983C219.025 247.398 218.874 247.796 218.619 248.126C218.365 248.456 218.019 248.705 217.625 248.84C217.231 248.976 216.805 248.993 216.402 248.889C215.998 248.785 215.634 248.564 215.354 248.255C215.074 247.946 214.891 247.562 214.828 247.15C214.765 246.738 214.824 246.316 214.998 245.938C215.172 245.559 215.454 245.24 215.808 245.019C216.161 244.799 216.572 244.687 216.989 244.698C217.564 244.733 218.102 244.992 218.488 245.419C218.875 245.846 219.079 246.407 219.056 246.983Z" fill="white"/>
<path d="M225.64 247.003C225.611 247.42 225.461 247.818 225.207 248.15C224.954 248.482 224.609 248.732 224.215 248.869C223.821 249.006 223.395 249.024 222.99 248.921C222.586 248.818 222.221 248.599 221.94 248.29C221.659 247.981 221.476 247.597 221.412 247.184C221.348 246.772 221.406 246.35 221.58 245.97C221.754 245.591 222.036 245.271 222.39 245.051C222.744 244.83 223.155 244.718 223.572 244.729C224.145 244.764 224.682 245.021 225.068 245.446C225.454 245.871 225.659 246.43 225.64 247.003Z" fill="white"/>
<path d="M232.233 247.034C232.205 247.448 232.056 247.845 231.806 248.176C231.555 248.507 231.213 248.757 230.821 248.896C230.43 249.035 230.007 249.056 229.604 248.958C229.2 248.859 228.835 248.645 228.552 248.341C228.269 248.037 228.081 247.657 228.011 247.248C227.941 246.839 227.992 246.418 228.158 246.038C228.324 245.657 228.598 245.334 228.945 245.107C229.293 244.88 229.699 244.759 230.115 244.761C230.697 244.782 231.247 245.033 231.644 245.46C232.041 245.886 232.253 246.452 232.233 247.034Z" fill="white"/>
<path d="M238.817 247.065C238.837 247.357 238.797 247.649 238.7 247.924C238.602 248.2 238.449 248.452 238.25 248.666C238.051 248.879 237.81 249.05 237.542 249.166C237.274 249.282 236.985 249.343 236.693 249.343C236.401 249.343 236.112 249.282 235.844 249.166C235.576 249.05 235.335 248.879 235.136 248.666C234.937 248.452 234.784 248.2 234.686 247.924C234.589 247.649 234.549 247.357 234.569 247.065C234.549 246.774 234.589 246.481 234.686 246.206C234.784 245.931 234.937 245.678 235.136 245.465C235.335 245.251 235.576 245.081 235.844 244.965C236.112 244.848 236.401 244.788 236.693 244.788C236.985 244.788 237.274 244.848 237.542 244.965C237.81 245.081 238.051 245.251 238.25 245.465C238.449 245.678 238.602 245.931 238.7 246.206C238.797 246.481 238.837 246.774 238.817 247.065Z" fill="white"/>
<path d="M245.401 247.096C245.372 247.51 245.224 247.907 244.973 248.238C244.722 248.569 244.38 248.819 243.989 248.958C243.597 249.097 243.174 249.118 242.771 249.02C242.367 248.921 242.002 248.707 241.719 248.403C241.436 248.099 241.248 247.719 241.178 247.31C241.108 246.901 241.159 246.48 241.325 246.1C241.491 245.719 241.765 245.396 242.113 245.169C242.46 244.942 242.867 244.821 243.282 244.823C243.864 244.844 244.414 245.095 244.811 245.522C245.208 245.948 245.42 246.514 245.401 247.096Z" fill="white"/>
<path d="M251.984 247.127C251.956 247.544 251.805 247.942 251.552 248.274C251.299 248.606 250.954 248.856 250.559 248.993C250.165 249.13 249.74 249.148 249.335 249.045C248.931 248.942 248.565 248.723 248.285 248.414C248.004 248.105 247.82 247.721 247.756 247.308C247.692 246.896 247.751 246.474 247.925 246.095C248.099 245.715 248.38 245.395 248.734 245.175C249.089 244.954 249.5 244.842 249.917 244.854C250.49 244.888 251.027 245.145 251.413 245.57C251.799 245.995 252.004 246.554 251.984 247.127Z" fill="white"/>
</g>
<path d="M242.631 97.9274C243.349 97.6112 243.958 97.0909 244.382 96.4312C244.807 95.7715 245.028 95.0015 245.018 94.217C245.045 93.7071 244.968 93.197 244.791 92.718C244.614 92.2389 244.342 91.8008 243.99 91.4304C243.639 91.06 243.216 90.765 242.746 90.5634C242.277 90.3618 241.772 90.2579 241.261 90.2579C240.751 90.2579 240.245 90.3618 239.776 90.5634C239.307 90.765 238.884 91.06 238.532 91.4304C238.181 91.8008 237.908 92.2389 237.732 92.718C237.555 93.197 237.478 93.7071 237.504 94.217C237.489 95.0093 237.708 95.7885 238.135 96.4562C238.562 97.124 239.177 97.6503 239.902 97.9687C234.114 98.8369 234.373 105.121 234.373 105.121L248.057 105.183C248.057 105.183 248.377 98.7852 242.631 97.9274Z" fill="#1A4372"/>
<path opacity="0.1" d="M242.631 97.9274C243.349 97.6112 243.958 97.0909 244.382 96.4312C244.807 95.7715 245.028 95.0015 245.018 94.217C245.045 93.7071 244.968 93.197 244.791 92.718C244.614 92.2389 244.342 91.8008 243.99 91.4304C243.639 91.06 243.216 90.765 242.746 90.5634C242.277 90.3618 241.772 90.2579 241.261 90.2579C240.751 90.2579 240.245 90.3618 239.776 90.5634C239.307 90.765 238.884 91.06 238.532 91.4304C238.181 91.8008 237.908 92.2389 237.732 92.718C237.555 93.197 237.478 93.7071 237.504 94.217C237.489 95.0093 237.708 95.7885 238.135 96.4562C238.562 97.124 239.177 97.6503 239.902 97.9687C234.114 98.8369 234.373 105.121 234.373 105.121L248.057 105.183C248.057 105.183 248.377 98.7852 242.631 97.9274Z" fill="black"/>
<path d="M264.867 109.236L216.095 109.014L216.068 114.843L264.84 115.065L264.867 109.236Z" fill="#1A4372"/>
<path opacity="0.2" d="M264.867 109.236L216.095 109.014L216.068 114.843L264.84 115.065L264.867 109.236Z" fill="white"/>
<path d="M85.5657 139.444H85.0799L83.6743 139.548C82.9137 139.593 82.1572 139.693 81.4109 139.847C80.9275 139.915 80.448 140.008 79.9743 140.126L78.3723 140.571C75.6457 141.407 73.0731 142.681 70.7552 144.343C67.6928 146.566 65.1356 149.412 63.2518 152.694C62.1446 154.586 61.2636 156.601 60.6267 158.699C59.9575 160.978 59.5721 163.332 59.4795 165.706C59.4179 166.953 59.4386 168.203 59.5415 169.447C59.5415 170.078 59.7172 170.708 59.7999 171.349C59.8694 171.995 59.9904 172.634 60.1616 173.261C61.091 177.408 62.9767 181.281 65.6683 184.57C68.36 187.86 71.783 190.474 75.6645 192.206C78.4737 193.418 81.4847 194.094 84.5425 194.2C87.7007 194.374 90.862 193.921 93.8442 192.867L94.7537 192.526H94.8777L94.9811 192.588L108.014 199.203L107.631 199.533C106.236 195.213 104.893 191.027 103.59 187.007V186.852L103.704 186.738C106.866 183.554 109.213 179.654 110.546 175.37C111.754 171.452 112.106 167.322 111.58 163.257C111.111 159.644 109.95 156.156 108.159 152.983C106.615 150.258 104.623 147.813 102.267 145.749C100.324 144.115 98.1727 142.746 95.8699 141.677C94.1275 140.925 92.3129 140.354 90.4542 139.971L88.3872 139.63L86.8886 139.517L85.9791 139.455H85.669C85.7721 139.443 85.876 139.443 85.9791 139.455H86.8989L88.3975 139.517L90.4646 139.816C92.3463 140.171 94.1857 140.721 95.9526 141.46C98.2949 142.516 100.485 143.882 102.464 145.521C104.863 147.576 106.897 150.022 108.479 152.756C110.321 155.962 111.518 159.498 112.003 163.164C112.574 167.291 112.246 171.494 111.042 175.483C109.7 179.857 107.317 183.84 104.097 187.09L104.159 186.821C105.461 190.841 106.815 195.027 108.221 199.337L108.417 199.967L107.828 199.668L94.7951 193.064H95.0224L94.0923 193.405C91.0526 194.474 87.8328 194.938 84.6148 194.769C81.4912 194.65 78.4172 193.949 75.5508 192.702C70.0831 190.36 65.5341 186.29 62.6007 181.116C61.2508 178.726 60.265 176.149 59.6758 173.468C59.5145 172.825 59.3937 172.173 59.3141 171.515C59.2314 170.863 59.0971 170.223 59.0661 169.582C58.7863 165.904 59.175 162.207 60.2133 158.668C60.866 156.541 61.7717 154.501 62.9108 152.591C64.8395 149.279 67.4499 146.415 70.5692 144.188C72.9253 142.522 75.541 141.258 78.3103 140.447L79.9329 140.033C80.4105 139.923 80.8935 139.836 81.3799 139.775C82.134 139.635 82.8975 139.552 83.664 139.527L85.0799 139.475C85.2409 139.453 85.4032 139.443 85.5657 139.444Z" fill="#1A4372"/>
<path d="M91.4567 163.546H89.5447L85.4106 157.738V153.924C85.4106 153.924 82.4547 153.738 82.8061 158.73C83.1575 163.722 82.8061 162.45 82.8061 162.45C82.8061 162.45 76.5326 162.45 76.0159 163.019C75.4991 163.587 75.4681 169.644 75.3957 173.023C75.3561 173.838 75.5899 174.643 76.0599 175.309C76.5299 175.976 77.2092 176.466 77.9899 176.703C78.2087 176.763 78.4346 176.795 78.6617 176.796C80.2326 176.796 88.2218 175.525 88.2218 175.525H91.5187L91.4567 163.546Z" fill="#1A4372"/>
<path d="M96.9241 162.523L95.7459 175.587H92.48V162.792L96.9241 162.523Z" fill="#1A4372"/>
<path d="M135.878 428.48V419.644L120.034 419.53L119.899 432.893L120.881 432.966C125.253 433.245 143.123 433.658 146.058 432.749C149.324 431.736 135.878 428.48 135.878 428.48Z" fill="#1A4372"/>
<path d="M146.43 431.922C146.43 432.066 140.498 432.19 133.191 432.19C125.883 432.19 119.951 432.066 119.951 431.922C119.951 431.777 125.883 431.653 133.191 431.653C140.498 431.653 146.43 431.777 146.43 431.922Z" fill="#263238"/>
<path d="M136.157 430.289C136.022 430.216 136.157 429.751 136.477 429.255C136.798 428.759 137.232 428.553 137.335 428.656C137.438 428.759 137.221 429.152 136.911 429.576C136.601 429.999 136.291 430.361 136.157 430.289Z" fill="#263238"/>
<path d="M137.17 430.868C137.025 430.868 137.097 430.289 137.407 429.741C137.717 429.193 138.131 428.863 138.244 428.945C138.358 429.028 138.172 429.493 137.883 429.979C137.593 430.464 137.304 430.919 137.17 430.868Z" fill="#263238"/>
<path d="M124.726 431.88C124.664 431.88 124.426 431.694 124.085 431.302C123.669 430.797 123.205 430.333 122.7 429.917C122.204 429.52 121.612 429.26 120.985 429.162C120.499 429.1 120.189 429.162 120.158 429.1C120.127 429.038 120.426 428.821 120.995 428.78C121.745 428.764 122.477 429.013 123.062 429.483C123.61 429.929 124.072 430.472 124.426 431.085C124.664 431.539 124.788 431.839 124.726 431.88Z" fill="#263238"/>
<path d="M136.208 428.625C136.281 428.749 136.012 429.059 135.557 429.224C135.103 429.39 134.699 429.328 134.679 429.224C134.658 429.121 134.979 428.904 135.371 428.759C135.764 428.615 136.126 428.501 136.208 428.625Z" fill="#263238"/>
<path d="M135.96 427.767C135.96 427.922 135.547 428.046 135.009 428.056C134.472 428.067 134.048 427.943 134.059 427.798C134.069 427.653 134.493 427.519 135.009 427.509C135.526 427.498 135.94 427.622 135.96 427.767Z" fill="#263238"/>
<path d="M174.893 428.48V419.644L159.049 419.53L158.915 432.759L159.897 432.831C164.269 433.11 182.149 433.658 185.074 432.749C188.339 431.736 174.893 428.48 174.893 428.48Z" fill="#1A4372"/>
<path d="M185.446 431.942C185.446 432.087 179.523 432.211 172.206 432.211C164.889 432.211 158.977 432.087 158.977 431.942C158.977 431.798 164.899 431.674 172.206 431.674C179.513 431.674 185.446 431.798 185.446 431.942Z" fill="#263238"/>
<path d="M175.172 430.289C175.048 430.216 175.172 429.751 175.493 429.255C175.813 428.759 176.247 428.553 176.351 428.656C176.454 428.759 176.237 429.152 175.927 429.576C175.617 429.999 175.307 430.361 175.172 430.289Z" fill="#263238"/>
<path d="M176.185 430.868C176.051 430.868 176.113 430.289 176.433 429.741C176.754 429.193 177.157 428.863 177.27 428.945C177.384 429.028 177.188 429.493 176.898 429.979C176.609 430.464 176.33 430.919 176.185 430.868Z" fill="#263238"/>
<path d="M163.742 431.88C163.68 431.88 163.452 431.694 163.101 431.302C162.684 430.797 162.221 430.333 161.716 429.917C161.219 429.52 160.628 429.26 160 429.162C159.525 429.1 159.204 429.162 159.173 429.1C159.142 429.038 159.442 428.821 160.011 428.78C160.761 428.764 161.493 429.013 162.078 429.483C162.629 429.927 163.091 430.47 163.442 431.085C163.68 431.539 163.804 431.839 163.742 431.88Z" fill="#263238"/>
<path d="M175.224 428.625C175.296 428.749 175.028 429.059 174.573 429.224C174.118 429.39 173.715 429.328 173.694 429.224C173.674 429.121 173.994 428.904 174.387 428.759C174.78 428.615 175.141 428.501 175.224 428.625Z" fill="#263238"/>
<path d="M174.997 427.767C174.997 427.922 174.583 428.046 174.046 428.056C173.508 428.067 173.095 427.943 173.105 427.798C173.116 427.653 173.529 427.519 174.046 427.509C174.563 427.498 174.997 427.622 174.997 427.767Z" fill="#263238"/>
<path d="M233.267 166.068C232.853 165.644 231.83 165.851 231.83 165.851C231.933 165.256 231.933 164.647 231.83 164.052C231.644 163.474 230.342 163.587 230.342 163.587C230.282 163.1 230.282 162.607 230.342 162.12C230.352 162.012 230.329 161.903 230.276 161.809C230.222 161.714 230.14 161.639 230.042 161.593C229.426 161.341 228.764 161.222 228.099 161.241C227.303 160.673 230.528 156.156 231.727 154.709C232.926 153.262 232.709 152.136 231.644 152.136C230.91 152.136 227.148 156.477 225.991 157.934C224.833 159.391 221.764 163.443 221.66 160.208C221.557 156.973 220.255 154.534 219.438 154.12C218.622 153.707 217.754 154.678 218.198 155.577C218.589 156.599 218.832 157.671 218.922 158.761C219.034 159.629 218.995 160.51 218.808 161.365C218.465 162.956 217.999 164.518 217.413 166.037H217.33C217.33 166.037 194.778 187.668 193.145 189.208C191.688 190.593 162.377 187.565 156.497 186.945C154.498 186.653 152.48 186.514 150.461 186.532C147.908 186.645 147.453 187.007 144.911 187.038C138.49 187.109 132.084 187.673 125.749 188.723C122.881 189.21 120.201 190.476 118.003 192.383C115.805 194.289 114.173 196.763 113.285 199.533C107.363 218.034 93.9475 261.824 91.5807 286.422C89.7923 289.665 88.1777 293.001 86.7438 296.416C85.0799 300.943 85.4829 301.098 86.041 301.201C87.55 301.48 89.2656 293.357 89.9064 295.321C90.5472 297.284 86.6508 305.005 88.2321 305.232C90.2992 305.522 91.9425 296.964 92.1389 296.282C92.3352 295.6 93.3584 295.817 93.1724 296.457C92.8727 297.367 89.9684 307.01 91.9942 307.32C93.1104 307.485 93.2344 305.449 93.2344 305.449C93.2344 305.449 95.3014 296.22 96.242 296.406C97.1825 296.592 96.1799 302.039 95.7045 303.858C95.2291 305.677 95.8905 306.596 96.8621 306.152C97.5235 305.842 99.1048 300.313 99.5389 298.514C99.973 296.716 101.058 291.734 102.515 294.618C103.973 297.501 106.184 299.176 107.094 299.217C107.299 299.193 107.492 299.109 107.649 298.975C107.805 298.84 107.918 298.662 107.972 298.463C108.027 298.264 108.021 298.053 107.954 297.858C107.888 297.663 107.765 297.492 107.6 297.367C106.818 296.603 106.147 295.733 105.606 294.783C105.124 294.043 104.774 293.225 104.572 292.365C104.156 290.65 103.913 288.898 103.849 287.135L103.683 286.102C105.998 274.64 112.665 240.998 122.287 219.511L126.235 227.635L127.951 233.65L117.429 259.623L162.305 259.034L155.608 233.257L163.742 206.386C172.537 206.582 195.119 206.913 198.881 205.207C203.615 203.14 228.099 172.217 228.099 172.217C229.695 170.977 231.224 169.652 232.678 168.249C232.678 168.249 234.166 166.998 233.267 166.068Z" fill="#FFBE9D"/>
<path d="M115.455 240.43C116.757 235.986 123.444 214.013 123.444 214.013C123.444 214.013 126.731 231.924 125.863 234.084C125.064 235.933 124.121 237.717 123.041 239.417C115.455 250.962 116.447 256.739 116.447 256.739L162.284 255.344C162.388 248.936 158.595 234.032 157.809 231.655C157.024 229.278 159.638 221.496 159.638 221.496C159.638 221.496 164.806 216.235 164.62 213.527C164.522 211.095 164.221 208.675 163.721 206.293L191.626 207.326L190.748 188.413L150.667 184.403C149.272 188.34 136.653 186.408 136.653 186.408C123.031 186.862 122.183 189.363 116.52 193.766C110.856 198.169 101.482 235.955 101.482 235.955L115.455 240.43Z" fill="#1A4372"/>
<path d="M142.554 235.955C141.76 236.097 140.951 236.138 140.146 236.079C138.648 236.079 136.591 235.975 134.327 235.748C132.064 235.521 130.018 235.2 128.56 234.911C127.757 234.807 126.969 234.606 126.214 234.312C127.022 234.312 127.829 234.388 128.622 234.539C130.09 234.725 132.126 234.983 134.379 235.211C136.632 235.438 138.679 235.593 140.156 235.696C140.962 235.707 141.765 235.793 142.554 235.955Z" fill="#263238"/>
<path d="M145.696 232.058C144.902 232.448 144.061 232.736 143.195 232.916C139.072 234 134.817 234.504 130.555 234.415C129.673 234.444 128.791 234.36 127.93 234.167C128.8 234.057 129.678 234.012 130.555 234.033C132.178 233.981 134.41 233.867 136.87 233.578C139.33 233.288 141.521 232.875 143.071 232.544C143.932 232.314 144.81 232.152 145.696 232.058Z" fill="#263238"/>
<path d="M161.116 214.675C161.096 215.463 160.988 216.246 160.796 217.01C160.527 218.447 160.114 220.411 159.587 222.56C159.06 224.71 158.553 226.694 158.099 228.038C157.916 228.807 157.645 229.553 157.292 230.26C157.35 229.475 157.496 228.698 157.726 227.945C158.119 226.333 158.564 224.472 159.06 222.436C159.556 220.4 160.031 218.54 160.424 216.928C160.564 216.152 160.796 215.395 161.116 214.675Z" fill="#263238"/>
<path d="M115.941 237.795C113.55 237.425 111.19 236.876 108.882 236.151C106.523 235.6 104.209 234.874 101.957 233.981C104.347 234.356 106.706 234.905 109.016 235.624C111.375 236.174 113.69 236.899 115.941 237.795Z" fill="#263238"/>
<path d="M164.217 206.065C163.827 206.132 163.429 206.132 163.039 206.065C161.959 205.955 160.899 205.701 159.887 205.311C158.196 204.675 156.657 203.693 155.368 202.428C154.079 201.162 153.07 199.641 152.404 197.962C151.668 196.115 151.354 194.128 151.484 192.144C151.53 190.507 152.019 188.914 152.9 187.534C153.519 186.604 154.444 185.921 155.515 185.601C155.801 185.523 156.096 185.484 156.393 185.488C156.6 185.488 156.703 185.488 156.703 185.488C156.703 185.488 156.269 185.488 155.577 185.767C154.595 186.13 153.762 186.81 153.21 187.699C151.804 189.911 151.412 193.952 152.91 197.725C153.608 199.503 154.7 201.101 156.104 202.396C157.254 203.456 158.58 204.31 160.021 204.918C161.373 205.453 162.781 205.837 164.217 206.065Z" fill="#263238"/>
<path d="M188.309 206.954C188.05 203.785 187.967 200.603 188.06 197.425C187.98 194.249 188.076 191.071 188.35 187.906C188.609 191.072 188.691 194.25 188.598 197.425C188.685 200.604 188.588 203.786 188.309 206.954Z" fill="#263238"/>
<path d="M150.399 185.56C150.512 183.255 150.75 180.651 150.75 180.651C150.75 180.651 156.455 180.02 156.796 174.129C157.137 168.238 156.796 154.647 156.796 154.647L146.461 149.356L134.989 158.378L136.756 187.834L147.277 188.506C148.082 188.528 148.862 188.23 149.447 187.678C150.032 187.126 150.374 186.364 150.399 185.56Z" fill="#FFBE9D"/>
<path d="M151.422 169.468C151.422 169.468 151.422 169.582 151.329 169.716C151.252 169.814 151.153 169.891 151.039 169.941C150.926 169.992 150.802 170.014 150.678 170.006C150.016 170.006 149.376 169.241 149.148 168.352C149.04 167.921 149.04 167.47 149.148 167.039C149.169 166.851 149.237 166.671 149.346 166.516C149.454 166.361 149.599 166.235 149.768 166.15C149.907 166.093 150.063 166.093 150.202 166.15C150.305 166.202 150.389 166.285 150.44 166.388C150.512 166.564 150.44 166.678 150.44 166.667C150.44 166.657 150.44 166.564 150.337 166.461C150.283 166.386 150.203 166.335 150.114 166.316C150.024 166.297 149.93 166.312 149.851 166.357C149.724 166.434 149.619 166.541 149.545 166.67C149.471 166.798 149.43 166.943 149.427 167.091C149.34 167.475 149.34 167.874 149.427 168.259C149.634 169.065 150.192 169.716 150.688 169.778C150.785 169.791 150.884 169.784 150.978 169.758C151.072 169.731 151.16 169.685 151.236 169.623C151.36 169.54 151.401 169.458 151.422 169.468Z" fill="#EB996E"/>
<path d="M160.341 151.464C159.545 148.756 156.662 147.413 154.037 146.669C150.037 145.532 145.717 145.036 141.81 146.472C137.903 147.909 133.211 150.431 133.211 154.74C130.906 154.554 129.584 156.57 128.674 159.071C128.093 160.595 127.744 162.197 127.64 163.825C127.351 169.468 125.77 177.261 122.111 181.395C120.044 183.7 117.181 185.291 116.003 188.165C114.969 190.655 115.507 193.611 114.546 196.133C113.688 198.355 111.797 199.936 110.412 201.869C109.001 204.062 108.17 206.577 107.999 209.178C107.827 211.78 108.319 214.383 109.43 216.742C110.548 219.04 112.123 221.087 114.058 222.757C115.993 224.427 118.248 225.686 120.685 226.457C125.513 227.925 130.661 227.976 135.516 226.601C139.16 225.73 142.559 224.045 145.458 221.672C148.425 219.249 150.463 215.875 151.226 212.122C151.959 207.905 150.781 203.616 149.903 199.42C147.153 186.16 147.939 185.467 151.412 173.158C151.494 172.941 151.536 172.713 151.598 172.496C151.66 172.279 151.691 172.176 151.732 172.011C151.831 171.524 151.883 171.029 151.887 170.533C151.38 170.721 150.829 170.761 150.3 170.648C149.771 170.534 149.285 170.272 148.9 169.892C148.514 169.487 148.245 168.984 148.121 168.438C147.997 167.893 148.024 167.323 148.197 166.791C148.441 166.209 148.805 165.685 149.264 165.252C149.723 164.82 150.268 164.488 150.864 164.28C152.011 163.804 153.241 163.556 154.367 163.029C156.755 161.892 158.409 159.536 159.535 157.066C160.461 155.354 160.747 153.368 160.341 151.464Z" fill="#263238"/>
<path d="M151.835 169.747C152.054 170.07 152.234 170.417 152.373 170.781C152.683 171.432 153.096 172.352 153.551 173.416L153.634 173.613H153.417L152.383 173.706C151.67 173.706 151.071 173.84 150.368 173.83C150.307 173.816 150.25 173.787 150.203 173.745C150.156 173.704 150.12 173.651 150.099 173.592C150.068 173.498 150.068 173.396 150.099 173.302C150.123 173.163 150.154 173.025 150.192 172.889L150.378 172.155C150.472 171.666 150.617 171.188 150.812 170.729C150.793 171.228 150.72 171.723 150.595 172.207L150.45 172.941C150.399 173.189 150.306 173.571 150.45 173.54C150.967 173.54 151.701 173.426 152.383 173.385L153.417 173.292L153.282 173.519C152.838 172.486 152.466 171.514 152.249 170.843C152.058 170.5 151.919 170.13 151.835 169.747Z" fill="#1A4372"/>
<path d="M116.447 256.739L162.284 255.344L182.231 333.21L178.562 422.527H154.326L157.292 335.111L139.567 280.903L142.296 425.989L117.801 426.351L115.228 289.977C115.114 286.184 113.874 277.637 114.339 273.875L116.447 256.739Z" fill="#263238"/>
<path d="M145.665 282.009C144.915 282.056 144.162 282.011 143.422 281.874C142.038 281.709 140.146 281.42 138.069 281.006C135.991 280.593 134.131 280.117 132.787 279.735C132.069 279.577 131.374 279.327 130.72 278.991C130.72 278.836 134.09 279.642 138.224 280.479C142.358 281.316 145.686 281.854 145.665 282.009Z" fill="#455A64"/>
<path d="M178.314 417.628C178.314 417.773 172.826 417.897 166.057 417.897C159.287 417.897 153.789 417.773 153.789 417.628C153.789 417.483 159.277 417.359 166.057 417.359C172.837 417.359 178.314 417.473 178.314 417.628Z" fill="#455A64"/>
<path d="M142.079 422.217C142.079 422.372 136.746 422.486 130.173 422.486C123.599 422.486 118.277 422.372 118.277 422.217C118.277 422.062 123.61 421.948 130.173 421.948C136.736 421.948 142.079 422.072 142.079 422.217Z" fill="#455A64"/>
<path d="M138.916 421.845C138.772 421.845 138.131 390.147 137.48 351.048C136.829 311.95 136.446 280.231 136.58 280.231C136.715 280.231 137.376 311.919 138.017 351.038C138.658 390.157 139.071 421.845 138.916 421.845Z" fill="#455A64"/>
<path d="M175.059 417.628C175.047 417.487 175.047 417.345 175.059 417.204V415.964C175.059 414.848 175.141 413.246 175.203 411.21C175.348 407.076 175.555 401.071 175.813 393.712C176.371 378.912 177.157 358.51 178.015 335.99C178.015 335.773 178.015 335.566 178.015 335.38V335.452C172.589 313.748 167.679 294.049 164.114 279.797L159.98 262.94C159.504 260.966 159.142 259.426 158.884 258.351C158.76 257.845 158.677 257.452 158.605 257.152C158.565 257.018 158.54 256.879 158.533 256.739C158.586 256.869 158.628 257.004 158.657 257.142C158.739 257.432 158.843 257.824 158.987 258.32C159.266 259.354 159.669 260.925 160.186 262.889C161.22 266.878 162.677 272.624 164.496 279.704C168.093 293.946 173.054 313.593 178.552 335.328V335.401C178.552 335.587 178.552 335.804 178.552 336.011C177.632 358.531 176.795 378.923 176.185 393.723C175.865 401.092 175.596 407.055 175.41 411.21C175.307 413.277 175.224 414.848 175.172 415.964C175.172 416.491 175.11 416.905 175.1 417.204C175.102 417.347 175.088 417.489 175.059 417.628Z" fill="#455A64"/>
<path d="M167.152 333.561C165.411 334.133 163.618 334.532 161.799 334.75C159.566 335.132 157.664 335.401 156.807 335.442V335.235C157.086 335.318 157.23 335.37 157.23 335.411C157.23 335.452 157.055 335.411 156.765 335.411H156.145L156.765 335.225C157.571 334.987 159.473 334.595 161.706 334.192C163.496 333.803 165.32 333.592 167.152 333.561Z" fill="#455A64"/>
<path d="M166.728 336.527C165.116 336.601 163.501 336.529 161.902 336.31C160.288 336.277 158.679 336.101 157.096 335.783C160.326 335.52 163.577 335.771 166.728 336.527Z" fill="#455A64"/>
<path opacity="0.2" d="M116.251 258.382C116.794 259.079 117.478 259.654 118.258 260.069C119.038 260.484 119.896 260.73 120.778 260.79C122.624 261.009 124.491 260.974 126.328 260.687C138.162 259.375 150.698 258.165 162.284 255.344C147.288 256.181 131.444 255.902 116.447 256.739L116.292 258.021" fill="black"/>
<g opacity="0.2">
<path d="M131.702 279.518L140.157 312.322L139.567 280.903L131.702 279.518Z" fill="black"/>
</g>
</svg>
